<svg xmlns="http://www.w3.org/2000/svg" viewBox="0 0 32 120"><defs><style>.cls-1{fill:#fff;fill-rule:evenodd;}</style></defs><g id="レイヤー_2" data-name="レイヤー 2"><g id="contents03"><path class="cls-1" d="M24.3,1.4,22.66,17a1,1,0,0,1-2,0L18.85,0,17.06,17a1,1,0,0,1-2,0L13.25,0,11.46,17a1,1,0,0,1-2,0L7.79,1.31c-9.45,9.87-11.63,34.37,1,41.7a11,11,0,0,1,2.42,1.65c4,16.35-2.93,47.9-1.8,67.36,0,9.11,11.46,12,13.12.19,1.18-19.39-5.71-51-1.83-67.42A10.38,10.38,0,0,1,23.23,43C35.8,35.7,33.68,11.33,24.3,1.4Z"/></g></g></svg>