<svg xmlns="http://www.w3.org/2000/svg" viewBox="0 0 42 42"><defs><style>.cls-1{fill:#fff;}</style></defs><g id="レイヤー_2" data-name="レイヤー 2"><g id="contents08"><polygon class="cls-1" points="42 26.6 37.8 14 4.2 14 0 26.6 42 26.6"/><path class="cls-1" d="M20.9,31.92a6.29,6.29,0,0,1-5-2.52H0L4.2,42H37.8L42,29.4H25.93A6.29,6.29,0,0,1,20.9,31.92Z"/><path class="cls-1" d="M11.68,0V11.09H9.86V3.49l-3.38,7.6H5.22l-3.4-7.6v7.6H0V0H2L5.85,8.69,9.73,0Z"/><path class="cls-1" d="M22.09,7.37H15.37A2.42,2.42,0,0,0,17.88,9.7,2.13,2.13,0,0,0,20,8.47h2a4,4,0,0,1-1.44,2,4.28,4.28,0,0,1-2.59.77,4.46,4.46,0,0,1-2.26-.57,3.92,3.92,0,0,1-1.56-1.59,4.86,4.86,0,0,1-.57-2.39A5,5,0,0,1,14,4.3a3.83,3.83,0,0,1,1.55-1.59,4.6,4.6,0,0,1,2.29-.56,4.37,4.37,0,0,1,2.21.55,3.83,3.83,0,0,1,1.52,1.52,4.61,4.61,0,0,1,.54,2.26A6,6,0,0,1,22.09,7.37ZM20.25,5.9a2.09,2.09,0,0,0-.71-1.61,2.6,2.6,0,0,0-1.74-.61,2.36,2.36,0,0,0-1.61.6,2.47,2.47,0,0,0-.8,1.62Z"/><path class="cls-1" d="M30.16,2.58a3,3,0,0,1,1.28,1.28,4.16,4.16,0,0,1,.47,2v5.19H30.1V6.17a2.53,2.53,0,0,0-.59-1.81,2.09,2.09,0,0,0-1.61-.63,2.13,2.13,0,0,0-1.62.63,2.53,2.53,0,0,0-.59,1.81v4.92H23.87V2.3h1.82v1a2.88,2.88,0,0,1,1.14-.84,3.65,3.65,0,0,1,1.47-.31A4,4,0,0,1,30.16,2.58Z"/><path class="cls-1" d="M42,2.3v8.79H40.18v-1a2.9,2.9,0,0,1-1.12.85,3.58,3.58,0,0,1-1.48.32,3.93,3.93,0,0,1-1.86-.44,3.09,3.09,0,0,1-1.29-1.27,4.21,4.21,0,0,1-.47-2V2.3h1.8V7.19A2.54,2.54,0,0,0,36.35,9,2.08,2.08,0,0,0,38,9.64,2.1,2.1,0,0,0,39.58,9a2.5,2.5,0,0,0,.6-1.81V2.3Z"/></g></g></svg>