<svg xmlns="http://www.w3.org/2000/svg" viewBox="0 0 355.92 96.38"><defs><style>.cls-1{fill:#504646;}.cls-2{fill:#fff2dc;stroke:#504646;stroke-miterlimit:10;}</style></defs><g id="レイヤー_2" data-name="レイヤー 2"><g id="contents07"><path class="cls-1" d="M61.91,71.76H27l-6,17H6.71L36.59,5.28H52.43L82.31,88.8H67.91ZM58.07,60.6,44.51,21.84,30.83,60.6Z"/><path class="cls-1" d="M115.48,24.66A29.52,29.52,0,0,1,129,21.6a30.46,30.46,0,0,1,15.84,4.2A29.55,29.55,0,0,1,156,37.74a37.39,37.39,0,0,1,4.08,17.7A38.11,38.11,0,0,1,156,73.26,30.49,30.49,0,0,1,144.76,85.5a31.41,31.41,0,0,1-29.4,1.38,26.18,26.18,0,0,1-9.42-7.68v9.6H92.26V0h13.68V32.52A26,26,0,0,1,115.48,24.66Zm27.84,19a19.33,19.33,0,0,0-7.44-7.56,20,20,0,0,0-9.9-2.58,19.41,19.41,0,0,0-9.78,2.64,19.66,19.66,0,0,0-7.44,7.68,23.94,23.94,0,0,0-2.82,11.88,24.28,24.28,0,0,0,2.82,11.94A19.5,19.5,0,0,0,126,78a19.3,19.3,0,0,0,9.9-2.7,19.9,19.9,0,0,0,7.44-7.86,24.63,24.63,0,0,0,2.82-12A23.6,23.6,0,0,0,143.32,43.62Z"/><path class="cls-1" d="M184.56,85.62a30.6,30.6,0,0,1-11.88-12,36.2,36.2,0,0,1-4.32-17.94A35.5,35.5,0,0,1,172.8,37.8a30.67,30.67,0,0,1,12.12-12,37.16,37.16,0,0,1,34.32,0,30.67,30.67,0,0,1,12.12,12,35.5,35.5,0,0,1,4.44,17.88,34.77,34.77,0,0,1-4.56,17.88,31.57,31.57,0,0,1-12.42,12.06,35.8,35.8,0,0,1-17.34,4.26A33.86,33.86,0,0,1,184.56,85.62Zm26.82-10.14a19.2,19.2,0,0,0,7.5-7.56,24.31,24.31,0,0,0,2.88-12.24A24.81,24.81,0,0,0,219,43.5a18.63,18.63,0,0,0-7.32-7.5,20,20,0,0,0-9.84-2.52A19.68,19.68,0,0,0,192.06,36a18,18,0,0,0-7.14,7.5,25.74,25.74,0,0,0-2.64,12.18q0,10.68,5.46,16.5A18,18,0,0,0,201.48,78,20.36,20.36,0,0,0,211.38,75.48Z"/><path class="cls-1" d="M307.65,22.68V88.8H294V81a22.14,22.14,0,0,1-8.46,6.42,26.83,26.83,0,0,1-11.1,2.34,29.65,29.65,0,0,1-14-3.24,23.41,23.41,0,0,1-9.72-9.6,31.14,31.14,0,0,1-3.54-15.36V22.68h13.56V59.52q0,8.88,4.44,13.62t12.12,4.74q7.68,0,12.18-4.74T294,59.52V22.68Z"/><path class="cls-1" d="M339.84,33.84v36.6q0,3.72,1.74,5.34t5.94,1.62h8.4V88.8h-10.8q-9.24,0-14.16-4.32t-4.92-14V33.84h-7.8V22.68H326V6.24h13.8V22.68h16.08V33.84Z"/><path class="cls-2" d="M55.91,77.76H21l-6,17H.71L30.59,11.28H46.43L76.31,94.8H61.91ZM52.07,66.6,38.51,27.84,24.83,66.6Z"/><path class="cls-2" d="M109.48,30.66A29.52,29.52,0,0,1,123,27.6a30.46,30.46,0,0,1,15.84,4.2A29.55,29.55,0,0,1,150,43.74a37.39,37.39,0,0,1,4.08,17.7A38.11,38.11,0,0,1,150,79.26,30.49,30.49,0,0,1,138.76,91.5a31.41,31.41,0,0,1-29.4,1.38,26.18,26.18,0,0,1-9.42-7.68v9.6H86.26V6H99.94V38.52A26,26,0,0,1,109.48,30.66Zm27.84,19a19.33,19.33,0,0,0-7.44-7.56,20,20,0,0,0-9.9-2.58,19.41,19.41,0,0,0-9.78,2.64,19.66,19.66,0,0,0-7.44,7.68,23.94,23.94,0,0,0-2.82,11.88,24.28,24.28,0,0,0,2.82,11.94A19.5,19.5,0,0,0,120,84a19.3,19.3,0,0,0,9.9-2.7,19.9,19.9,0,0,0,7.44-7.86,24.63,24.63,0,0,0,2.82-12A23.6,23.6,0,0,0,137.32,49.62Z"/><path class="cls-2" d="M178.56,91.62a30.6,30.6,0,0,1-11.88-12,36.2,36.2,0,0,1-4.32-17.94A35.5,35.5,0,0,1,166.8,43.8a30.67,30.67,0,0,1,12.12-12,37.16,37.16,0,0,1,34.32,0,30.67,30.67,0,0,1,12.12,12,35.5,35.5,0,0,1,4.44,17.88,34.77,34.77,0,0,1-4.56,17.88,31.57,31.57,0,0,1-12.42,12.06,35.8,35.8,0,0,1-17.34,4.26A33.86,33.86,0,0,1,178.56,91.62Zm26.82-10.14a19.2,19.2,0,0,0,7.5-7.56,24.31,24.31,0,0,0,2.88-12.24A24.81,24.81,0,0,0,213,49.5a18.63,18.63,0,0,0-7.32-7.5,20,20,0,0,0-9.84-2.52A19.68,19.68,0,0,0,186.06,42a18,18,0,0,0-7.14,7.5,25.74,25.74,0,0,0-2.64,12.18q0,10.68,5.46,16.5A18,18,0,0,0,195.48,84,20.36,20.36,0,0,0,205.38,81.48Z"/><path class="cls-2" d="M301.65,28.68V94.8H288V87a22.14,22.14,0,0,1-8.46,6.42,26.83,26.83,0,0,1-11.1,2.34,29.65,29.65,0,0,1-14-3.24,23.41,23.41,0,0,1-9.72-9.6,31.14,31.14,0,0,1-3.54-15.36V28.68h13.56V65.52q0,8.88,4.44,13.62t12.12,4.74q7.68,0,12.18-4.74T288,65.52V28.68Z"/><path class="cls-2" d="M333.84,39.84v36.6q0,3.72,1.74,5.34t5.94,1.62h8.4V94.8h-10.8q-9.24,0-14.16-4.32t-4.92-14V39.84h-7.8V28.68H320V12.24h13.8V28.68h16.08V39.84Z"/></g></g></svg>