<?xml version="1.0" encoding="utf-8"?>
<!-- Generator: Adobe Illustrator 24.3.0, SVG Export Plug-In . SVG Version: 6.00 Build 0)  -->
<svg version="1.1" id="レイヤー_1" xmlns="http://www.w3.org/2000/svg" xmlns:xlink="http://www.w3.org/1999/xlink" x="0px"
	 y="0px" viewBox="0 0 1200 276" style="enable-background:new 0 0 1200 276;" xml:space="preserve">
<style type="text/css">
	.st0{enable-background:new    ;}
	.st1{fill:#8F250C;}
	.st2{fill:#FFF2DC;}
	.st3{fill:none;stroke:#8F250C;stroke-width:0.99;stroke-miterlimit:10;}
</style>
<g>
	<g class="st0">
		<path class="st1" d="M614,242.3c1.4,0,4.1-0.1,5.5-0.3v6.7c-1.6-0.1-3.7-0.2-5.4-0.2h-17.7c-0.9,11.6-5.6,20.6-16.8,27.2l-6.5-4.5
			c10.2-4.8,15.5-11.9,16.5-22.7h-18.9c-2,0-4.3,0.1-6,0.2V242c1.6,0.2,3.9,0.3,5.9,0.3h19.1v-10.8c-6.5,0.7-13.6,0.9-18.4,0.9
			l-1.6-6c5,0.2,15.1,0,22.2-1c6.2-0.9,13.4-2.4,16.7-3.8l4.3,5.7c-1.8,0.5-3.2,0.8-4.3,1c-3.3,0.9-7.7,1.8-12.1,2.4v11.6H614z"/>
		<path class="st1" d="M678.3,252.6c-1.5,0.1-3.9,0.6-6.4,1c-3.4,0.5-9.2,1.4-15.3,2.4c1.2,5.9,2.1,10.8,2.5,12.6
			c0.5,1.9,1,4.2,1.7,6.2l-7.5,1.3c-0.3-2.3-0.5-4.4-0.9-6.4c-0.3-1.6-1.2-6.5-2.4-12.6c-7.1,1.2-13.8,2.3-16.8,2.9
			c-2.7,0.5-4.7,0.9-6.1,1.2l-1.5-7c1.6-0.1,4.4-0.4,6.2-0.7c3.2-0.5,9.9-1.5,17-2.6l-2.3-12.1c-6,1-11.5,1.9-13.8,2.3
			c-2.2,0.4-3.9,0.8-5.6,1.2l-1.4-7.2c1.8-0.1,3.7-0.3,5.7-0.5c2.4-0.3,7.9-1,13.8-2c-0.7-3.3-1.1-5.6-1.3-6.5
			c-0.4-1.8-0.8-3.3-1.3-4.7l7.3-1.2c0.2,1.2,0.4,3.3,0.7,4.7c0.1,0.8,0.6,3.3,1.2,6.7c6-1,11.5-1.9,14.1-2.4c2-0.4,4.1-0.9,5.4-1.2
			l1.2,6.9c-1.2,0.1-3.4,0.5-5.2,0.7c-2.9,0.5-8.4,1.3-14.3,2.2l2.3,12c6.4-1,12.2-2,15.3-2.6c2.5-0.5,4.7-1,6.2-1.4L678.3,252.6z"
			/>
		<path class="st1" d="M711.3,258.4c10.5-6.5,18.7-16.3,22.7-24.7l4,7.1c-4.7,8.4-12.8,17.4-23,23.7c-6.6,4.1-14.9,7.9-25.1,9.8
			l-4.4-6.7C696.5,266,705.1,262.3,711.3,258.4z M709.1,237.5l-5.2,5.3c-3.4-3.5-11.5-10.5-16.4-13.9l4.8-5.1
			C697,226.9,705.5,233.7,709.1,237.5z"/>
		<path class="st1" d="M790.9,232.4c1.9,0,4.7-0.3,6.1-0.5v6.9c-1.8-0.1-4.1-0.1-5.8-0.1h-9.6c0.2,9.7,0.5,21.8,0.5,30.3
			c0,3.8-2.2,5.9-6.6,5.9c-3.6,0-7.4-0.2-10.9-0.4l-0.5-6.7c3,0.5,6.7,0.7,9,0.7c1.8,0,2.4-0.9,2.4-2.6c0-4.9-0.1-13.2-0.2-21.1
			c-5.6,7.7-16.7,17.6-27.8,23.4l-4.7-5.4c13-6.3,24.3-16.4,29.5-24.1h-20c-2.3,0-4.5,0.1-6.7,0.2V232c1.8,0.3,4.5,0.5,6.6,0.5h22.9
			c-0.1-2.2-0.1-4.1-0.2-5.6c-0.1-1.8-0.2-3.9-0.6-6h7.5c-0.3,1.9-0.4,4.1-0.3,6l0.1,5.6H790.9z"/>
		<path class="st1" d="M805.2,243.4c2.1,0.2,6.2,0.4,9.7,0.4h35.6c3.2,0,5.8-0.3,7.3-0.4v8.1c-1.4-0.1-4.4-0.3-7.3-0.3h-35.6
			c-3.7,0-7.5,0.1-9.7,0.3V243.4z"/>
		<path class="st1" d="M880.9,228.1l7.5,1.5c-0.5,1.6-1,4.1-1.4,5.6c-0.9,4.3-3.2,13.7-5.8,20.2c-2.4,6.1-6.1,13.2-9.6,18.3l-7.1-3
			c4.1-5.4,7.9-12.4,10.2-17.9C877.5,245.6,880.1,235.9,880.9,228.1z M897.4,229.5l6.7-2.2c2.6,4.9,7,14.4,9.6,21
			c2.5,6.3,6,16.5,7.7,22.7l-7.5,2.4c-1.8-7.1-4.5-15.8-7.1-22.8C904.3,243.8,900.2,234.4,897.4,229.5z M916.9,230l-4.3,1.8
			c-1.3-2.6-3.5-6.5-5.2-9l4.3-1.8C913.3,223.4,915.6,227.5,916.9,230z M924.4,227.1l-4.2,1.9c-1.4-2.8-3.5-6.6-5.4-9l4.2-1.8
			C920.7,220.7,923.2,224.8,924.4,227.1z"/>
		<path class="st1" d="M930.9,243.4c2.1,0.2,6.2,0.4,9.7,0.4h35.6c3.2,0,5.8-0.3,7.3-0.4v8.1c-1.4-0.1-4.4-0.3-7.3-0.3h-35.6
			c-3.7,0-7.5,0.1-9.7,0.3V243.4z"/>
		<path class="st1" d="M1042.9,241.2c-0.3,0.7-0.9,1.7-1,2.2c-1.9,6.4-4.8,13-9.6,18.4c-6.7,7.5-15.1,11.6-23.4,14l-5.1-5.9
			c9.5-2,17.6-6.2,22.9-11.8c3.7-3.9,6.1-8.8,7.3-13.1h-33.3c-1.6,0-4.5,0.1-6.9,0.3v-6.8c2.6,0.3,5,0.5,6.9,0.5h33.5
			c1.8,0,3.3-0.3,4.2-0.6L1042.9,241.2z M999.6,223.2c1.8,0.2,4.1,0.3,6.2,0.3h25.5c2.1,0,4.8-0.1,6.4-0.3v6.7
			c-1.6-0.1-4.3-0.2-6.5-0.2h-25.5c-2,0-4.4,0.1-6.2,0.2V223.2z"/>
		<path class="st1" d="M1083.3,267.3c0,2.7,0.1,6.3,0.5,7.7h-8.1c0.2-1.4,0.4-5,0.4-7.7V244c-6.9,3.7-15.6,7.3-23.7,9.6l-3.7-6.4
			c11.2-2.6,22.3-7.4,29.5-11.9c6.6-4.1,13.4-10,17.1-14.7l5.6,5c-4.7,4.7-10.9,9.8-17.5,14.1V267.3z"/>
		<path class="st1" d="M1152,228.5c-0.5,0.7-1.4,2.3-1.9,3.4c-2.3,5.4-6.2,12.8-10.7,18.7c6.7,5.8,14.7,14.2,18.7,19.2l-5.8,5.1
			c-4.3-5.9-10.8-13.1-17.3-19.1c-7,7.5-15.8,14.5-25.2,18.8l-5.3-5.5c10.6-4.1,20.4-11.9,26.9-19.2c4.5-5,8.8-12.2,10.4-17.3h-24
			c-2.6,0-6.1,0.3-7.1,0.4v-7.4c1.3,0.2,5.1,0.5,7.1,0.5h24.3c2.4,0,4.6-0.3,5.7-0.7L1152,228.5z"/>
	</g>
	<g class="st0">
		<path class="st1" d="M431.4,46.8c6.2-10.6,14.5-18.9,25.1-24.9c10.6-6,22.1-8.9,34.7-8.9c14.4,0,27.2,3.6,38.4,10.7
			C540.8,30.8,549,40.9,554,54h-26.6c-3.5-7.2-8.4-12.6-14.6-16.1c-6.2-3.5-13.4-5.3-21.6-5.3c-8.9,0-16.9,2-23.9,6.1
			c-7,4.1-12.5,9.9-16.4,17.5c-4,7.6-5.9,16.4-5.9,26.5c0,10.1,2,18.9,5.9,26.5c4,7.6,9.4,13.5,16.4,17.6c7,4.1,15,6.2,23.9,6.2
			c8.2,0,15.4-1.8,21.6-5.3c6.2-3.5,11.1-8.9,14.6-16.1H554c-5.1,13.1-13.2,23.2-24.4,30.3c-11.2,7.1-24,10.6-38.4,10.6
			c-12.7,0-24.3-3-34.8-8.9c-10.5-6-18.8-14.2-25-24.9c-6.2-10.6-9.2-22.6-9.2-36S425.2,57.4,431.4,46.8z"/>
		<path class="st1" d="M657.2,46.6c6.4,3.5,11.5,8.8,15.2,15.7c3.7,6.9,5.5,15.3,5.5,25.1v63.9h-22V90.8c0-9.7-2.4-17.1-7.2-22.3
			c-4.8-5.2-11.3-7.8-19.6-7.8c-8.3,0-14.9,2.6-19.7,7.8c-4.9,5.2-7.3,12.6-7.3,22.3v60.5h-22.2V5.9h22.2v49.7
			c3.8-4.6,8.5-8.1,14.3-10.6c5.8-2.5,12.1-3.7,19-3.7C643.5,41.3,650.8,43,657.2,46.6z"/>
		<path class="st1" d="M707.3,24.6c-2.7-2.8-4.1-6.2-4.1-10.2c0-4.1,1.4-7.5,4.1-10.2C710,1.4,713.4,0,717.4,0
			c3.9,0,7.2,1.4,9.9,4.1c2.7,2.8,4.1,6.2,4.1,10.2c0,4.1-1.4,7.5-4.1,10.2c-2.7,2.8-6,4.1-9.9,4.1C713.4,28.7,710,27.3,707.3,24.6z
			 M728.3,43v108.3h-22.2V43H728.3z"/>
		<path class="st1" d="M756.8,67.7c4.5-8.4,10.7-15,18.6-19.5c7.9-4.6,17-6.9,27.2-6.9c13,0,23.7,3.1,32.2,9.3
			c8.5,6.2,14.2,15.1,17.2,26.6h-23.9c-1.9-5.4-5.1-9.6-9.3-12.6c-4.3-3-9.7-4.5-16.1-4.5c-9.1,0-16.3,3.2-21.7,9.7
			c-5.4,6.5-8.1,15.6-8.1,27.2c0,11.7,2.7,20.8,8.1,27.3c5.4,6.6,12.6,9.8,21.7,9.8c12.8,0,21.3-5.7,25.5-17.1H852
			c-3.1,11-8.9,19.7-17.5,26.2c-8.6,6.5-19.2,9.7-31.9,9.7c-10.2,0-19.3-2.3-27.2-7c-7.9-4.6-14.1-11.2-18.6-19.6
			c-4.5-8.4-6.7-18.2-6.7-29.4C750.1,85.9,752.3,76.1,756.8,67.7z"/>
		<path class="st1" d="M916.6,97.3l49.4,54h-30l-39.7-46.6v46.6h-22.2V5.9h22.2v84.5L935.3,43H966L916.6,97.3z"/>
		<path class="st1" d="M1079.4,105.5h-81.9c0.6,8.6,3.8,15.6,9.5,20.8c5.7,5.2,12.7,7.9,21,7.9c11.9,0,20.4-5,25.3-15.1h23.9
			c-3.2,10-9.1,18.1-17.6,24.5c-8.5,6.4-19,9.5-31.6,9.5c-10.2,0-19.4-2.3-27.5-7c-8.1-4.6-14.5-11.2-19.1-19.6
			c-4.6-8.4-6.9-18.2-6.9-29.4c0-11.1,2.2-20.9,6.7-29.4c4.5-8.4,10.8-15,18.9-19.5c8.1-4.6,17.4-6.9,27.9-6.9
			c10.1,0,19.1,2.2,27,6.7c7.9,4.5,14.1,10.7,18.5,18.8c4.4,8.1,6.6,17.3,6.6,27.8C1080.2,98.6,1079.9,102.2,1079.4,105.5z
			 M1057,87.4c-0.1-8.3-3-14.9-8.8-19.8c-5.7-5-12.8-7.5-21.2-7.5c-7.7,0-14.2,2.5-19.6,7.4s-8.7,11.6-9.7,19.9H1057z"/>
		<path class="st1" d="M1178.7,46.6c6.7,3.5,11.9,8.8,15.7,15.7c3.8,6.9,5.6,15.3,5.6,25.1v63.9h-22V90.8c0-9.7-2.4-17.1-7.2-22.3
			c-4.8-5.2-11.3-7.8-19.6-7.8c-8.3,0-14.9,2.6-19.7,7.8c-4.9,5.2-7.3,12.6-7.3,22.3v60.5H1102V43h22.2v12.4
			c3.6-4.5,8.3-7.9,13.9-10.4c5.6-2.5,11.6-3.7,18-3.7C1164.5,41.3,1172,43,1178.7,46.6z"/>
	</g>
	<g class="st0">
		<path class="st2" d="M421.6,56.6c6.2-10.6,14.5-18.9,25.1-24.9c10.6-6,22.1-8.9,34.7-8.9c14.4,0,27.2,3.6,38.4,10.7
			c11.2,7.1,19.4,17.3,24.4,30.4h-26.6c-3.5-7.2-8.4-12.6-14.6-16.1c-6.2-3.5-13.4-5.3-21.6-5.3c-8.9,0-16.9,2-23.9,6.1
			c-7,4.1-12.5,9.9-16.4,17.5c-4,7.6-5.9,16.4-5.9,26.5c0,10.1,2,18.9,5.9,26.5c4,7.6,9.4,13.5,16.4,17.6c7,4.1,15,6.2,23.9,6.2
			c8.2,0,15.4-1.8,21.6-5.3c6.2-3.5,11.1-8.9,14.6-16.1h26.6c-5.1,13.1-13.2,23.2-24.4,30.3c-11.2,7.1-24,10.6-38.4,10.6
			c-12.7,0-24.3-3-34.8-8.9c-10.5-6-18.8-14.2-25-24.9c-6.2-10.6-9.2-22.6-9.2-36S415.4,67.2,421.6,56.6z"/>
		<path class="st2" d="M647.4,56.4c6.4,3.5,11.5,8.8,15.2,15.7c3.7,6.9,5.5,15.3,5.5,25.1v63.9h-22v-60.5c0-9.7-2.4-17.1-7.2-22.3
			c-4.8-5.2-11.3-7.8-19.6-7.8c-8.3,0-14.9,2.6-19.7,7.8c-4.9,5.2-7.3,12.6-7.3,22.3v60.5h-22.2V15.7h22.2v49.7
			c3.8-4.6,8.5-8.1,14.3-10.6c5.8-2.5,12.1-3.7,19-3.7C633.7,51.1,641,52.9,647.4,56.4z"/>
		<path class="st2" d="M697.5,34.4c-2.7-2.8-4.1-6.2-4.1-10.2c0-4.1,1.4-7.5,4.1-10.2c2.7-2.8,6.1-4.1,10.1-4.1
			c3.9,0,7.2,1.4,9.9,4.1c2.7,2.8,4.1,6.2,4.1,10.2c0,4.1-1.4,7.5-4.1,10.2c-2.7,2.8-6,4.1-9.9,4.1
			C703.6,38.5,700.2,37.1,697.5,34.4z M718.5,52.9v108.3h-22.2V52.9H718.5z"/>
		<path class="st2" d="M747,77.5c4.5-8.4,10.7-15,18.6-19.5c7.9-4.6,17-6.9,27.2-6.9c13,0,23.7,3.1,32.2,9.3
			c8.5,6.2,14.2,15.1,17.2,26.6h-23.9c-1.9-5.4-5.1-9.6-9.3-12.6c-4.3-3-9.7-4.5-16.1-4.5c-9.1,0-16.3,3.2-21.7,9.7
			c-5.4,6.5-8.1,15.6-8.1,27.2c0,11.7,2.7,20.8,8.1,27.3c5.4,6.6,12.6,9.8,21.7,9.8c12.8,0,21.3-5.7,25.5-17.1h23.9
			c-3.1,11-8.9,19.7-17.5,26.2c-8.6,6.5-19.2,9.7-31.9,9.7c-10.2,0-19.3-2.3-27.2-7c-7.9-4.6-14.1-11.2-18.6-19.6
			c-4.5-8.4-6.7-18.2-6.7-29.4C740.3,95.8,742.5,86,747,77.5z"/>
		<path class="st2" d="M906.8,107.1l49.4,54h-30l-39.7-46.6v46.6h-22.2V15.7h22.2v84.5l38.9-47.4h30.7L906.8,107.1z"/>
		<path class="st2" d="M1069.6,115.3h-81.9c0.6,8.6,3.8,15.6,9.5,20.8c5.7,5.2,12.7,7.9,21,7.9c11.9,0,20.4-5,25.3-15.1h23.9
			c-3.2,10-9.1,18.1-17.6,24.5c-8.5,6.4-19,9.5-31.6,9.5c-10.2,0-19.4-2.3-27.5-7c-8.1-4.6-14.5-11.2-19.1-19.6
			c-4.6-8.4-6.9-18.2-6.9-29.4c0-11.1,2.2-20.9,6.7-29.4c4.5-8.4,10.8-15,18.9-19.5c8.1-4.6,17.4-6.9,27.9-6.9
			c10.1,0,19.1,2.2,27,6.7c7.9,4.5,14.1,10.7,18.5,18.8c4.4,8.1,6.6,17.3,6.6,27.8C1070.4,108.4,1070.1,112.1,1069.6,115.3z
			 M1047.2,97.3c-0.1-8.3-3-14.9-8.8-19.8c-5.7-5-12.8-7.5-21.2-7.5c-7.7,0-14.2,2.5-19.6,7.4c-5.4,4.9-8.7,11.6-9.7,19.9H1047.2z"
			/>
		<path class="st2" d="M1168.9,56.4c6.7,3.5,11.9,8.8,15.7,15.7c3.8,6.9,5.6,15.3,5.6,25.1v63.9h-22v-60.5c0-9.7-2.4-17.1-7.2-22.3
			c-4.8-5.2-11.3-7.8-19.6-7.8c-8.3,0-14.9,2.6-19.7,7.8c-4.9,5.2-7.3,12.6-7.3,22.3v60.5h-22.2V52.9h22.2v12.4
			c3.6-4.5,8.3-7.9,13.9-10.4c5.6-2.5,11.6-3.7,18-3.7C1154.6,51.1,1162.2,52.9,1168.9,56.4z"/>
	</g>
	<g class="st0">
		<path class="st3" d="M421.6,56.6c6.2-10.6,14.5-18.9,25.1-24.9c10.6-6,22.1-8.9,34.7-8.9c14.4,0,27.2,3.6,38.4,10.7
			c11.2,7.1,19.4,17.3,24.4,30.4h-26.6c-3.5-7.2-8.4-12.6-14.6-16.1c-6.2-3.5-13.4-5.3-21.6-5.3c-8.9,0-16.9,2-23.9,6.1
			c-7,4.1-12.5,9.9-16.4,17.5c-4,7.6-5.9,16.4-5.9,26.5c0,10.1,2,18.9,5.9,26.5c4,7.6,9.4,13.5,16.4,17.6c7,4.1,15,6.2,23.9,6.2
			c8.2,0,15.4-1.8,21.6-5.3c6.2-3.5,11.1-8.9,14.6-16.1h26.6c-5.1,13.1-13.2,23.2-24.4,30.3c-11.2,7.1-24,10.6-38.4,10.6
			c-12.7,0-24.3-3-34.8-8.9c-10.5-6-18.8-14.2-25-24.9c-6.2-10.6-9.2-22.6-9.2-36S415.4,67.2,421.6,56.6z"/>
		<path class="st3" d="M647.4,56.4c6.4,3.5,11.5,8.8,15.2,15.7c3.7,6.9,5.5,15.3,5.5,25.1v63.9h-22v-60.5c0-9.7-2.4-17.1-7.2-22.3
			c-4.8-5.2-11.3-7.8-19.6-7.8c-8.3,0-14.9,2.6-19.7,7.8c-4.9,5.2-7.3,12.6-7.3,22.3v60.5h-22.2V15.7h22.2v49.7
			c3.8-4.6,8.5-8.1,14.3-10.6c5.8-2.5,12.1-3.7,19-3.7C633.7,51.1,641,52.9,647.4,56.4z"/>
		<path class="st3" d="M697.5,34.4c-2.7-2.8-4.1-6.2-4.1-10.2c0-4.1,1.4-7.5,4.1-10.2c2.7-2.8,6.1-4.1,10.1-4.1
			c3.9,0,7.2,1.4,9.9,4.1c2.7,2.8,4.1,6.2,4.1,10.2c0,4.1-1.4,7.5-4.1,10.2c-2.7,2.8-6,4.1-9.9,4.1
			C703.6,38.5,700.2,37.1,697.5,34.4z M718.5,52.9v108.3h-22.2V52.9H718.5z"/>
		<path class="st3" d="M747,77.5c4.5-8.4,10.7-15,18.6-19.5c7.9-4.6,17-6.9,27.2-6.9c13,0,23.7,3.1,32.2,9.3
			c8.5,6.2,14.2,15.1,17.2,26.6h-23.9c-1.9-5.4-5.1-9.6-9.3-12.6c-4.3-3-9.7-4.5-16.1-4.5c-9.1,0-16.3,3.2-21.7,9.7
			c-5.4,6.5-8.1,15.6-8.1,27.2c0,11.7,2.7,20.8,8.1,27.3c5.4,6.6,12.6,9.8,21.7,9.8c12.8,0,21.3-5.7,25.5-17.1h23.9
			c-3.1,11-8.9,19.7-17.5,26.2c-8.6,6.5-19.2,9.7-31.9,9.7c-10.2,0-19.3-2.3-27.2-7c-7.9-4.6-14.1-11.2-18.6-19.6
			c-4.5-8.4-6.7-18.2-6.7-29.4C740.3,95.8,742.5,86,747,77.5z"/>
		<path class="st3" d="M906.8,107.1l49.4,54h-30l-39.7-46.6v46.6h-22.2V15.7h22.2v84.5l38.9-47.4h30.7L906.8,107.1z"/>
		<path class="st3" d="M1069.6,115.3h-81.9c0.6,8.6,3.8,15.6,9.5,20.8c5.7,5.2,12.7,7.9,21,7.9c11.9,0,20.4-5,25.3-15.1h23.9
			c-3.2,10-9.1,18.1-17.6,24.5c-8.5,6.4-19,9.5-31.6,9.5c-10.2,0-19.4-2.3-27.5-7c-8.1-4.6-14.5-11.2-19.1-19.6
			c-4.6-8.4-6.9-18.2-6.9-29.4c0-11.1,2.2-20.9,6.7-29.4c4.5-8.4,10.8-15,18.9-19.5c8.1-4.6,17.4-6.9,27.9-6.9
			c10.1,0,19.1,2.2,27,6.7c7.9,4.5,14.1,10.7,18.5,18.8c4.4,8.1,6.6,17.3,6.6,27.8C1070.4,108.4,1070.1,112.1,1069.6,115.3z
			 M1047.2,97.3c-0.1-8.3-3-14.9-8.8-19.8c-5.7-5-12.8-7.5-21.2-7.5c-7.7,0-14.2,2.5-19.6,7.4c-5.4,4.9-8.7,11.6-9.7,19.9H1047.2z"
			/>
		<path class="st3" d="M1168.9,56.4c6.7,3.5,11.9,8.8,15.7,15.7c3.8,6.9,5.6,15.3,5.6,25.1v63.9h-22v-60.5c0-9.7-2.4-17.1-7.2-22.3
			c-4.8-5.2-11.3-7.8-19.6-7.8c-8.3,0-14.9,2.6-19.7,7.8c-4.9,5.2-7.3,12.6-7.3,22.3v60.5h-22.2V52.9h22.2v12.4
			c3.6-4.5,8.3-7.9,13.9-10.4c5.6-2.5,11.6-3.7,18-3.7C1154.6,51.1,1162.2,52.9,1168.9,56.4z"/>
	</g>
</g>
</svg>
