<svg xmlns="http://www.w3.org/2000/svg" viewBox="0 0 800 481.11"><defs><style>.cls-1{fill:#fff;}</style></defs><g id="レイヤー_2" data-name="レイヤー 2"><g id="contents02"><path class="cls-1" d="M799.51,480.59l-13.4.07-13.55-.05-13.54.31-13.55.07-13.54-.54-13.55.66-13.55-.65-13.54.29-13.55.29-13.54-.61-13.55.66-13.55-.42-13.55.16-13.54,0-13.55-.36-13.54.59-13.55-.62-13.55.21-13.54-.1-13.55.09-13.55-.19-13.54.6-13.55-.4-13.55-.2-13.55,0-13.54.16-13.55-.17-13.55.26-13.54-.25-13.55.59-13.55-.49-13.55.17-13.54.38-13.55-.27-13.55-.26L312,480.46l-13.54.18-13.55-.08-13.55,0-13.54.52L244.24,481l-13.54-.62-13.55.41-13.55.32L190.05,481l-13.54-.16-13.55-.3H149.41l-13.55.12-13.54.1-13.55.3-13.55-.12-13.55.16-13.55-.51-13.54.54L41,480.94l-13.55,0-13.55-.07L.59,480.52.11,467.4l.52-13.35L.18,440.71l.05-13.34L.6,414,.15,400.68l.24-13.34L.51,374l0-13.34L.2,347.31.6,334,0,320.62l.22-13.34L0,293.94.14,280.6l.41-13.35.06-13.34.14-13.34L.21,227.23l.2-13.34,0-13.35L.21,187.2l.31-13.35L.25,160.51l.12-13.34L.15,133.82l.42-13.34.16-13.35L.16,93.79.69,80.45.34,67.1.15,53.76.54,40.41.1,27.07.71,13.72.27.26,13.92.69,27.47.12,41,.15,54.56.57,68.11.22,81.65.39,95.2,0l13.54.56,13.55-.3,13.54,0,13.55.08L162.93.28,176.47.6,190,.65h27.09l13.55,0,13.55,0L257.75.42,271.3.27,284.85,0l13.54.4,13.55.2,13.55-.2L339,.6l13.54.15L366.13.54l13.55.18L393.22.48l13.55.19,13.55-.4,13.55.4L447.41.62,461,.45,474.51.7,488.06.07,501.6.31,515.15,0l13.54.53,13.55.12L555.79.63,569.33.26,582.88.7,596.43.1,610,.56l13.54.07L637.07.47,650.62.19l13.55.48L677.72.38l13.54.06L704.81.28l13.55,0L731.9.19,745.45.06,759,.41,772.55.17,786.1.63,799.55.48l.09,13.24L800,27.06l-.08,13.34-.07,13.35-.52,13.34.16,13.34.06,13.35.33,13.34-.57,13.34.33,13.35,0,13.34.37,13.34-.09,13.34-.38,13.34.08,13.35-.09,13.34-.2,13.34.59,13.34-.58,13.34.31,13.35-.27,13.34.62,13.34-.19,13.35V320.6l-.33,13.34.49,13.35-.28,13.34.09,13.35-.08,13.34.26,13.35L799.83,414l.12,13.34-.25,13.35L799.33,454v13.35ZM7.7,473.42l13.67-.07,13.52,0,13.52-.31L61.93,473l13.53.55L89,472.9l13.52.65,13.52-.29,13.52-.29,13.53.61,13.52-.66,13.52.42,13.52-.16,13.52,0,13.53.36L224.2,473l13.52.61,13.53-.2,13.52.09,13.52-.08,13.52.19,13.52-.6,13.53.4,13.52.2,13.52,0,13.53-.16,13.52.17,13.52-.26,13.53.25,13.52-.59,13.52.49,13.53-.17,13.52-.39,13.52.28,13.53.26,13.52.06,13.52-.18,13.52.08,13.52,0,13.52-.53,13.53.06,13.52.63,13.53-.41,13.52-.32,13.52.13,13.53.16,13.52.3h13.52l13.53-.12,13.52-.1,13.53-.3,13.52.12,13.52-.16,13.53.5,13.52-.53,13.53.15,13.53,0,13.42.12.41-13.58-.58-13.69.53-13.68L792,418.52l0-13.69.37-13.69L792,377.45l.24-13.69.12-13.69,0-13.69L792,322.7l.4-13.69-.6-13.69.21-13.69-.19-13.69.12-13.68.4-13.69.07-13.69.14-13.69L792,199.5l.2-13.69-.06-13.69L792,158.44l.31-13.69-.27-13.69.11-13.69L792,103.68,792.38,90l.16-13.69L792,62.61l.53-13.69-.35-13.69L792,21.54l.34-13.81-13.64.39-13.52-.61L751.62,8l-13.53-.47-13.52.57-13.52,0-13.52-.43L684,8l-13.53-.17L657,8.22l-13.52-.56L629.92,8l-13.52,0-13.53-.09-13.52.09-13.52-.33-13.52,0h-27l-13.52,0-13.52,0-13.53.16L481.17,8l-13.52.26-13.53-.4-13.52-.2-13.52.2-13.52-.19L400,7.47l-13.52.21L373,7.5l-13.52.24-13.52-.19L332.41,8l-13.52-.4-13.52,0-13.52.17-13.52-.25-13.53.63L251.28,7.9l-13.52.27-13.52-.52-13.53-.13-13.52.07L183.67,8l-13.53-.43-13.52.6L143.1,7.66l-13.53-.07-13.52.16L102.52,8,89,7.55l-13.52.29L62,7.78l-13.53.15L34.9,7.9,21.37,8l-13.3,0L7.81,21.53l.24,13.69L7.59,48.91,7.7,62.6l.13,13.69L8.19,90l-.08,13.69L8,117.35,7.52,131l.16,13.69.06,13.69.33,13.69-.56,13.68.32,13.69,0,13.69.37,13.69-.09,13.69-.38,13.68.08,13.69L7.7,281.61,7.5,295.3,8.09,309l-.58,13.69.31,13.69-.27,13.69.62,13.69L8,377.43v13.69l-.33,13.69.49,13.69-.28,13.69L8,445.89l-.08,13.69Z"/><path class="cls-1" d="M142.34,102.75c-6-1-21.57-1.53-47.56-1.53a158,158,0,0,1-17.12-.83,2.47,2.47,0,0,0-1.71.43,7.52,7.52,0,0,1-2.07.19c-2.67,0-4.57.81-5.63,2.41a2.58,2.58,0,0,0-.42,1.66c.42,4.28.63,9.13.63,14.4,0,2.07-.11,5.35-.32,9.75s-.32,7.92-.32,10.21a2.56,2.56,0,0,0,.23,1.06c.13,1.2.37,3.87.84,9.75.56,7,.84,14.08.84,21,0,5.45-.21,13.78-.63,24.73s-.64,19.48-.64,25.15v4.46a2.55,2.55,0,0,0,2.23,2.53c13.63,1.7,30.81,2.57,51.05,2.57,12,0,21.29-.66,27.66-2,10.64-1.92,19.22-6,25.49-12.14,9.83-9.54,15-16.29,16.11-21.16,2.9-4.12,4.66-9.46,5.24-15.89a1.69,1.69,0,0,0,0-.23V163c0-1,.11-2.56.31-4.52.22-2.15.33-3.73.33-4.82,0-5.32-4.33-14-13.62-27.36C174.41,113.6,160.63,105.67,142.34,102.75Zm31.59,76.79c-2.66,6.36-4.6,10.64-5.78,12.74a24.19,24.19,0,0,1-9.37,9.21c-7.8,4-20.34,6.08-37.25,6.08-2.41,0-6.1-.07-11-.21H99.45c-3.28,0-6,0-8.06.13v-46c0-15,.37-27.76,1.08-38.11,19.84.78,35,1.18,45.18,1.18.23,0,1.17.23,4.48,1.17a51,51,0,0,1,22.62,13.36,27.89,27.89,0,0,1,4.07,4.84c2.45,4,3.89,9.73,4.29,17C173.29,167.07,173.56,173.32,173.93,179.54Z"/><path class="cls-1" d="M230,227.89a2.57,2.57,0,0,0,3.24.58,4.23,4.23,0,0,1,1.06-.09,16.61,16.61,0,0,1,3.49.66,20.78,20.78,0,0,0,5,.83,9.29,9.29,0,0,0,5.84-2.26,2.58,2.58,0,0,0,.95-2c.29-20.93.43-36.8.43-47.16V152.81c0-10.35-.14-26.36-.43-47.58a2.55,2.55,0,0,0-1.93-2.45,43.12,43.12,0,0,0-7.3-.71h-.11c-2.84,0-4.06-.53-4.53-.84a2.53,2.53,0,0,0-2.22-.3,2.58,2.58,0,0,0-1.6,1.56c-2.21,6.19-3.33,14.48-3.33,24.64,0,6.44.14,16.14.42,28.81.29,13,.43,22.44.43,28.92,0,15.42-.36,28.87-1.06,40a2.58,2.58,0,0,0,.59,1.8Z"/><path class="cls-1" d="M397.56,223.36c9.28-5.77,14.75-15.23,16.26-28.12v-.16q.8-15,1.61-30.05l.09-1.69a2.56,2.56,0,0,0-.39-1.5c-1.28-2-4.21-2.88-9.8-2.88a3.61,3.61,0,0,1-1.27-.15,2.53,2.53,0,0,0-2.13-.41A52.31,52.31,0,0,1,388.78,160c-3,0-7.63-.28-13.67-.84-6.31-.57-10.87-.86-13.93-.86a44.48,44.48,0,0,0-7.45.47,2.34,2.34,0,0,0-.69.23l-2.12,1.06a2.54,2.54,0,0,0-1.41,2.28v6.79a8.38,8.38,0,0,0,3.08,6.88,2.57,2.57,0,0,0,1.67.56l21.15-.64a115.83,115.83,0,0,1,17.94,1.28c-.39,8.17-.77,13.37-1.13,15.44-1.26,6.66-3.82,11.06-7.6,13.07-7.37,3.89-21.8,5.86-42.9,5.86-.11,0-.56-.07-1.83-.35a42.08,42.08,0,0,1-15.4-7.43,46.83,46.83,0,0,1-12.1-12.69c-4.95-7.75-7.45-17.71-7.45-29.62,0-9.07,2.42-16.35,7.19-21.64,11.47-12.68,28.19-19.11,49.69-19.11h.23l2.22-.2c4.83,0,10.68,2.1,17.38,6.16,5.6,3.92,11.21,7.9,16.68,11.83a2.57,2.57,0,0,0,3,0,20.12,20.12,0,0,0,5.11-5.83,2.08,2.08,0,0,0,.26-.59c.12-.29.63-1.44,2.83-6a2.58,2.58,0,0,0,0-2.25,11,11,0,0,0-4-4.41c-1.32-.83-2.64-1.62-3.92-2.34-2.94-2.1-5-3.64-6.35-4.71l0,0c-7.74-6-15-9.92-21.69-11.7a69.78,69.78,0,0,0-17.44-2.84c-16.64,0-34.81,7.61-54,22.61-6.19,4.83-11.19,13-14.87,24.38-.84,2.64-1.48,4.63-1.9,5.91a2.37,2.37,0,0,0-.09.36,77.66,77.66,0,0,0-.68,12.33,85.8,85.8,0,0,0,4.39,28s0,.08,0,.12c1.58,3.89,2.86,6.72,3.89,8.65,3.6,8.26,3.76,8.57,3.84,8.74l.11.2c5.25,8.4,14.35,14.83,27,19.1a98,98,0,0,0,32.68,5.45C372.63,233.69,386.44,230.22,397.56,223.36Z"/><path class="cls-1" d="M593.11,198.68a63.31,63.31,0,0,0,1.77-7.56c.1-.81.23-3,.23-13.05,0-3.6.07-8.87.21-15.66.15-7.13.21-12.21.21-15.55,0-16.44-.79-30.42-2.36-41.53a2.55,2.55,0,0,0-1.72-2.07,14.52,14.52,0,0,0-4.62-.76,43.07,43.07,0,0,0-10.42,1.78,2.55,2.55,0,0,0-1.89,2.65c1.82,24.9,2.75,39.41,2.75,43.12,0,2-.14,5.56-.42,10.48q-.65,12.06-1.27,23.9c-1.07,9-3.72,15.94-7.87,20.62a21.27,21.27,0,0,1-5.27,4.54c-4.4,2.46-11.62,3.71-21.46,3.71a54.7,54.7,0,0,1-19.71-3.67c-7.15-2.66-12.55-6.32-16-10.88-2-2.57-3.21-6.2-3.73-10.78l-.07-2.2c-.12-3.63-.23-7.27-.35-10.91a1.64,1.64,0,0,0,0-.23c-.41-3.3-.76-5.87-1.05-7.63-.41-8.8-.63-15.52-.63-20V147c-.42-19.3-1.14-33.22-2.14-41.38a2.55,2.55,0,0,0-2.14-2.21,61.62,61.62,0,0,0-8.46-.88,13.09,13.09,0,0,0-8.64,2.72,2.57,2.57,0,0,0-.89,2.28,159.75,159.75,0,0,1,1,19.7c0,3.93-.11,9.79-.32,17.4s-.32,13.49-.32,17.32c0,22.08,3.69,39.64,11,52.18,2.72,4.68,4.08,6.23,4.88,6.94,1.79,1.91,4.84,4,9.31,6.3a48.29,48.29,0,0,0,10.69,4.37c1.71.39,5.68.92,20.42.92,17.46,0,31.5-2.75,41.75-8.16C583.75,220,589.68,211.37,593.11,198.68Z"/><path class="cls-1" d="M701.85,177.09c3.16-.51,5.5-1,7.17-1.41,12.57-2.29,15-2.8,15.76-3,7.41-1.85,12.37-4.43,15.15-7.85,4.47-5.4,6.74-13.66,6.74-24.56a50.94,50.94,0,0,0-7.39-27,23.35,23.35,0,0,0-2.25-3.42,3.37,3.37,0,0,0-.35-.29,26.1,26.1,0,0,0-5.08-3c-10.36-5.5-24.22-8.29-41.18-8.29-4,0-9.92.18-18.16.53-8,.35-14.07.53-18.15.53a172.33,172.33,0,0,1-18-1,2.56,2.56,0,0,0-1.51.3l-1.91,1.06a2.55,2.55,0,0,0-1.31,2.12c-.28,6.61-.43,16.72-.43,30,0,8.08.18,20.42.54,36.68s.52,28.7.52,36.77a33.68,33.68,0,0,1-.89,6.26,37.06,37.06,0,0,0-1,7.11,19.57,19.57,0,0,0,.72,5.13,2.55,2.55,0,0,0,2.46,1.88H648.6a2.55,2.55,0,0,0,2.54-2.41c.28-5.09.46-12.91.54-23.26.06-9.66.22-17.09.48-22.11l.69-.76c9.31.52,19.79.78,31.2.78C692.77,177.86,698.59,177.61,701.85,177.09Zm-49.31-56.31a2.92,2.92,0,0,1,1.15-.23,16.88,16.88,0,0,1,2.55.28,20.86,20.86,0,0,0,3.18.35,9.27,9.27,0,0,0,4.43-1c5.58.65,17.36,1,35.91,1,11.67,0,19,2.32,21.88,6.88a35.42,35.42,0,0,0,1.68,7.77,27.92,27.92,0,0,1,1.48,7.43c0,8.16-10.64,12.3-31.63,12.3-2.94,0-7-.14-12-.42-6.2-.28-10.27-.43-12.43-.43H653.24c-.06-3-.23-6.8-.5-11.64-.35-6.13-.53-10.81-.53-13.92C652.21,127.14,652.32,124.32,652.54,120.78Z"/><path class="cls-1" d="M118.19,316c12.1-11.45,21.21-20.28,27.11-26.28a2.56,2.56,0,0,0-.57-4,12.57,12.57,0,0,0-6.23-1.68,33.11,33.11,0,0,0-3.93.32,29.11,29.11,0,0,1-3.3.28,8.42,8.42,0,0,1-1.6-.1,2.56,2.56,0,0,0-2.3.68c-7,6.9-14,13.85-20.66,20.66-7.94,7.94-14.87,14.44-20.63,19.35-.2.07-.41.16-.63.26l-.33.09-.43-39.32a2.56,2.56,0,0,0-1.64-2.35,19.39,19.39,0,0,0-7-1.23c-3.27,0-5.75.88-7.36,2.63a2.54,2.54,0,0,0-.69,1.73v12.81c0,6.46.13,16.26.38,29.14.25,13.15.38,22.7.38,29.18,0,3.46-.1,9-.3,16.36A2.54,2.54,0,0,0,71,377.16h11.6a2.55,2.55,0,0,0,2.55-2.48l.73-26.14a244.46,244.46,0,0,1,20.19-18.83,1.9,1.9,0,0,0,.21-.19,3.66,3.66,0,0,1,.76.75c1.12,1.78,1.9,3.09,2.32,3.86.2.39.73,1.4,12.69,20.16a136.8,136.8,0,0,1,11.1,20.11,2.48,2.48,0,0,0,.76,1,11.61,11.61,0,0,0,7.47,2.36,28,28,0,0,0,7.14-1.14,2.54,2.54,0,0,0,1.56-3.71Q124.39,327.09,118.19,316Z"/><path class="cls-1" d="M189.91,285.48a27.93,27.93,0,0,0-5.33-.53h-.11a5.47,5.47,0,0,1-2.81-.47,2.55,2.55,0,0,0-3.81,1.26c-1.6,4.48-2.41,10.45-2.41,17.74,0,4.58.1,11.47.3,20.48s.3,16,.3,20.51c0,10.94-.25,20.46-.75,28.32a2.56,2.56,0,0,0,.59,1.8l.75.9a2.55,2.55,0,0,0,3.12.64,4.51,4.51,0,0,1,.5,0,11,11,0,0,1,2.3.44,15.48,15.48,0,0,0,3.73.61,7.34,7.34,0,0,0,4.61-1.76,2.58,2.58,0,0,0,1-2c.2-14.87.3-26.13.3-33.49V321.71c0-7.35-.1-18.72-.3-33.79A2.54,2.54,0,0,0,189.91,285.48Z"/><path class="cls-1" d="M294.79,282.84h-.06c-8.24.2-14.52.3-18.66.3l-.23,0-.66,0-2.51-.09-10-.33c-8.82-.27-21.86-.66-39.84-1.18h-.3c-5.52,0-6.12,5.48-6.12,7.83v5.88a2.54,2.54,0,0,0,2.79,2.54c3.12-.29,7.8-.44,13.93-.44a30.69,30.69,0,0,1,5.68.4,20.65,20.65,0,0,0,3.66.5c.58,0,1.41-.05,2.53-.15h2.29c1.8,0,2.19.48,2.31.81.48,4.62.72,8.11.72,10.38v.15c.4,6.59.6,15.63.6,26.88,0,12.38-.3,25.14-.9,37.93a2.55,2.55,0,0,0,2.55,2.67,2.31,2.31,0,0,0,.73-.11c.85-.25,1.2-.32,1.31-.34a26.15,26.15,0,0,1,2.64.21,30.37,30.37,0,0,0,3.16.24c6.84,0,7.37-4.61,7.37-6,0-1.79-.15-4.38-.46-7.91-.3-3.32-.44-5.83-.44-7.46,0-1,.09-2.41.27-4.17a34.25,34.25,0,0,0,.63-4.61c.3-4.21.45-17.31.45-40.05v-8.45h26.39a2.58,2.58,0,0,0,1.69-.64,7,7,0,0,0,2.21-5.53c0-.37,0-.84-1.25-7.13A2.56,2.56,0,0,0,294.79,282.84Z"/><path class="cls-1" d="M416.38,352.8a4.17,4.17,0,0,0-3.59-1.84,7,7,0,0,0-3,.85,5.21,5.21,0,0,1-1,.36l-.08,0a2.51,2.51,0,0,0-2.32.37A51.81,51.81,0,0,1,375,362.72a43.74,43.74,0,0,1-19.23-4.27l0,0c-.81-.37-2.25-1.38-4.58-4a22.91,22.91,0,0,0-5.61-5,25.51,25.51,0,0,1-4.16-14.61c0-5.62,1.49-12,4.42-19.06.68-1.2,1.18-2.15,1.52-2.88a39.22,39.22,0,0,1,3.84-3.82,41.66,41.66,0,0,1,27.31-9.66,32,32,0,0,1,13.94,3.66l.05,0a137.48,137.48,0,0,1,13.42,7.83,2.65,2.65,0,0,0,1.37.39h.11a3.1,3.1,0,0,0,.95.15c2.11,0,4.49-1.54,7.71-5l1.62-1.63a2.28,2.28,0,0,0,.48-.67,6.82,6.82,0,0,0,.73-3.09,8,8,0,0,0-3-6.16,1.56,1.56,0,0,0-.2-.16c-1.28-.88-2.31-1.56-3.07-2-1.49-1.09-3-2.14-4.47-3.13-2.38-1.69-4.12-2.57-5.56-2.81-.76-.34-2.25-.95-5.38-2.14a47.15,47.15,0,0,0-16.89-2.88c-11.76,0-23.4,3.36-34.63,10a33.64,33.64,0,0,0-5.56,4,34.05,34.05,0,0,0-4.28,5.33C329,311.39,325.54,322.11,325.54,333A49.13,49.13,0,0,0,327.92,348a2.51,2.51,0,0,0,.37.73c1.06,1.44,2.95,4.42,5.59,8.83a46.55,46.55,0,0,0,6.7,9.23c8.3,8.51,22.05,12.82,40.86,12.82a27.5,27.5,0,0,0,5.7-1c10.74-2.48,21.45-7.59,31.83-15.19a2.57,2.57,0,0,0,1-2.21C419.77,357.26,418.55,354.44,416.38,352.8Z"/><path class="cls-1" d="M529.12,292.32c0-3-.55-5.2-1.69-6.77a2.54,2.54,0,0,0-1.37-.95,14.74,14.74,0,0,0-4-.4,29.8,29.8,0,0,0-8.41,1.31,2.52,2.52,0,0,0-1.72,1.72,36.18,36.18,0,0,0-1.31,10.22c0,2,.15,4.85.46,8.72.29,3.68.44,6.47.44,8.31a42.3,42.3,0,0,1-.25,5.23c-6.24-.26-12.59-.4-18.9-.4h-11.8c-5.21.1-9.2.15-11.86.15a23.44,23.44,0,0,1-3.78-.41l-.21,0c-1-.09-2.18-.24-3.37-.43a2,2,0,0,1-.5-.13l-.29-31.73a2.56,2.56,0,0,0-1.42-2.27,9,9,0,0,0-4-.87,22.55,22.55,0,0,0-3.76.42,16.36,16.36,0,0,1-2.71.34,6.52,6.52,0,0,1-1.19-.07,2.54,2.54,0,0,0-3.17,2.44l-.91,70.68V371a2.56,2.56,0,0,0,.51,1.53l.9,1.21a2.63,2.63,0,0,0,1.41.94c5,1.29,6.82,1.44,7.76,1.44a9.66,9.66,0,0,0,5.84-1.86,2.55,2.55,0,0,0,1-2.63,25,25,0,0,1-.39-5.33c0-2.17.15-7.28.45-15.19.18-5.76.2-10.55,0-14.28l.1-.09c5.93-.27,17.08-.41,33.17-.41,3.93,0,10.23-.14,18.75-.43l.1.21v37.46a2.56,2.56,0,0,0,2.55,2.55h.15l10.25-.6a2.55,2.55,0,0,0,2.4-2.55v-4.22c0-7.1.25-18,.75-32.23s.76-25.38.76-32.57c0-1.39-.13-3.36-.39-6.05C529.24,295.42,529.12,293.55,529.12,292.32Z"/><path class="cls-1" d="M632.71,360c-2.26.1-5.72.15-10.29.15s-11.79-.18-21.08-.53-16.57-.53-21.27-.53h-9.2l-.47-.48L570,334.19c3.52-.59,10-.88,19.28-.88,3.28,0,6.65-.16,10-.46a2.55,2.55,0,0,0,2.32-2.54V323a2.54,2.54,0,0,0-1.68-2.39,33.19,33.19,0,0,0-9.83-1.75,2.12,2.12,0,0,0-.44,0H578.71a43.15,43.15,0,0,1-8.37-.68l-.46-.46-.07-1a32.42,32.42,0,0,1,.43-6.15,52.56,52.56,0,0,0,.63-6.57,26.62,26.62,0,0,0-.28-3.82l.69-.73c1.53-.06,3.62-.09,6.23-.09H601a259.67,259.67,0,0,0,28.17-1.24,2.55,2.55,0,0,0,2.24-2.19l1.2-8.71a2.58,2.58,0,0,0-.33-1.65,4.05,4.05,0,0,0-3.55-2,3.63,3.63,0,0,0-2.65,1.18c-.66,0-1.7-.15-3.3-.39a2.43,2.43,0,0,0-.38,0h-4.37c-3.53,0-8.87.07-15.88.22s-12.32.23-15.77.23a163.06,163.06,0,0,1-21.94-1.18,2.58,2.58,0,0,0-2,.57,1.39,1.39,0,0,1-.78.16,15.41,15.41,0,0,1-1.74-.13,18.68,18.68,0,0,0-2.18-.17c-3.17,0-5.24,2-5.26,5.07h0a2.52,2.52,0,0,0,.28,1.16c.11.69.3,2.06.65,4.75a95.71,95.71,0,0,1,.73,11.91c0,2.84-.13,7.25-.37,13.1s-.39,10.36-.39,13.32c0,1.68.14,4.14.39,7.3s.37,5.37.37,6.89a70.54,70.54,0,0,1-.81,8.71,75.26,75.26,0,0,0-.85,9.41,30,30,0,0,0,1,7.59,2.55,2.55,0,0,0,2.47,1.9h.15c6.47-.4,12.91-.6,19.14-.6,5,0,12.35.1,22.48.3,9.89.2,17.49.3,22.58.3h12.21a2.55,2.55,0,0,0,1.82-.76l.9-.92a2.53,2.53,0,0,0,.65-2.4,5.48,5.48,0,0,1-.07-1.07,15.31,15.31,0,0,1,.2-1.92,20,20,0,0,0,.25-2.82,6.63,6.63,0,0,0-1.5-4.4A2.56,2.56,0,0,0,632.71,360Z"/><path class="cls-1" d="M743.12,365.12c0-2.57.2-7.13.6-13.56.2-3.37.31-8.64.31-15.68,0-5.23-.13-13-.38-23.87-.25-10.59-.38-18.63-.38-23.91a2.57,2.57,0,0,0-1.21-2.17,11.89,11.89,0,0,0-6.31-1.58,19.84,19.84,0,0,0-6.23,1,2.55,2.55,0,0,0-1.75,2.42c0,26-.42,45.29-1.25,57.51-14.6-17-25.94-30.17-33.73-39.1-1.56-1.95-2.74-3.48-3.5-4.53l-.21-.25c-1.54-1.64-2.72-2.91-3.49-3.78l-5.06-6.84-.09-.12c-2.85-3.42-5.09-5.38-7-6.16l0,0a10.71,10.71,0,0,0-3.76-.61c-.9,0-2.14.07-3.79.23-1.47.15-2.58.22-3.3.22a2.54,2.54,0,0,0-2.52,2.22,249.82,249.82,0,0,0-1.68,31.68c0,4,.07,10.14.22,18.13s.23,14,.23,17.89c0,7.42-.2,14.2-.6,20.17a2.52,2.52,0,0,0,.66,1.89,2.57,2.57,0,0,0,1.82.83l11.45.3a2.52,2.52,0,0,0,2.49-1.74,6.86,6.86,0,0,0,.43-2.16,9.74,9.74,0,0,0-.31-2.16c-.19-5.47-.29-18.07-.29-37.48,0-2.11.22-5.37.66-9.69.47-4.54.7-7.88.7-10.2,0-1.25,0-2.29-.07-3.14.19.06.41.15.67.26,7,7.32,15.7,18.22,26,32.4,11.83,16.45,20.5,27.87,25.76,33.94a2.57,2.57,0,0,0,1.75.87c2.83.21,5,.31,6.51.31a19.72,19.72,0,0,0,6.24-.89,2.55,2.55,0,0,0,1.61-3.22A31.43,31.43,0,0,1,743.12,365.12Z"/></g></g></svg>