<svg xmlns="http://www.w3.org/2000/svg" viewBox="0 0 320.14 90.98"><defs><style>.cls-1{fill:#504646;}.cls-2{fill:#fff2dc;stroke:#504646;stroke-miterlimit:10;}</style></defs><g id="レイヤー_2" data-name="レイヤー 2"><g id="contents07"><path class="cls-1" d="M94.34,0V83.4H80.66V26.28L55.22,83.4H45.74L20.18,26.28V83.4H6.5V0H21.26L50.54,65.4,79.7,0Z"/><path class="cls-1" d="M171.94,55.44H121.42a18.35,18.35,0,0,0,5.88,12.72,18.56,18.56,0,0,0,13,4.8q11,0,15.6-9.24h14.76a29.78,29.78,0,0,1-10.86,14.94q-7.86,5.82-19.5,5.82a33.77,33.77,0,0,1-17-4.26,30.31,30.31,0,0,1-11.76-12,36.61,36.61,0,0,1-4.26-17.94,37.47,37.47,0,0,1,4.14-17.94A29.12,29.12,0,0,1,123,20.4a34.64,34.64,0,0,1,17.22-4.2,33.68,33.68,0,0,1,16.68,4.08,28.83,28.83,0,0,1,11.4,11.46,34.51,34.51,0,0,1,4.08,17A42.77,42.77,0,0,1,171.94,55.44Zm-13.8-11a15.57,15.57,0,0,0-5.4-12.12,19.31,19.31,0,0,0-13.08-4.56,17.57,17.57,0,0,0-12.12,4.5,18.81,18.81,0,0,0-6,12.18Z"/><path class="cls-1" d="M231.91,19.44a23,23,0,0,1,9.66,9.6,31.58,31.58,0,0,1,3.48,15.36v39H231.49v-37q0-8.88-4.44-13.62c-3-3.16-7-4.74-12.12-4.74s-9.18,1.58-12.18,4.74-4.5,7.7-4.5,13.62v37H184.57V17.28h13.68v7.56a22.64,22.64,0,0,1,8.58-6.36,27.43,27.43,0,0,1,11.1-2.28A29.65,29.65,0,0,1,231.91,19.44Z"/><path class="cls-1" d="M320.14,17.28V83.4H306.46V75.6A22.14,22.14,0,0,1,298,82a26.83,26.83,0,0,1-11.1,2.34,29.65,29.65,0,0,1-14-3.24,23.41,23.41,0,0,1-9.72-9.6,31.14,31.14,0,0,1-3.54-15.36V17.28h13.56V54.12q0,8.88,4.44,13.62t12.12,4.74q7.68,0,12.18-4.74t4.5-13.62V17.28Z"/><path class="cls-2" d="M88.34,6V89.4H74.66V32.28L49.22,89.4H39.74L14.18,32.28V89.4H.5V6H15.26L44.54,71.4,73.7,6Z"/><path class="cls-2" d="M165.94,61.44H115.42a18.35,18.35,0,0,0,5.88,12.72,18.56,18.56,0,0,0,13,4.8q11,0,15.6-9.24h14.76a29.78,29.78,0,0,1-10.86,14.94q-7.86,5.82-19.5,5.82a33.77,33.77,0,0,1-17-4.26,30.31,30.31,0,0,1-11.76-12,36.61,36.61,0,0,1-4.26-17.94,37.47,37.47,0,0,1,4.14-17.94A29.12,29.12,0,0,1,117,26.4a34.64,34.64,0,0,1,17.22-4.2,33.68,33.68,0,0,1,16.68,4.08,28.83,28.83,0,0,1,11.4,11.46,34.51,34.51,0,0,1,4.08,17A42.77,42.77,0,0,1,165.94,61.44Zm-13.8-11a15.57,15.57,0,0,0-5.4-12.12,19.31,19.31,0,0,0-13.08-4.56,17.57,17.57,0,0,0-12.12,4.5,18.81,18.81,0,0,0-6,12.18Z"/><path class="cls-2" d="M225.91,25.44a23,23,0,0,1,9.66,9.6,31.58,31.58,0,0,1,3.48,15.36v39H225.49v-37q0-8.88-4.44-13.62c-3-3.16-7-4.74-12.12-4.74s-9.18,1.58-12.18,4.74-4.5,7.7-4.5,13.62v37H178.57V23.28h13.68v7.56a22.64,22.64,0,0,1,8.58-6.36,27.43,27.43,0,0,1,11.1-2.28A29.65,29.65,0,0,1,225.91,25.44Z"/><path class="cls-2" d="M314.14,23.28V89.4H300.46V81.6A22.14,22.14,0,0,1,292,88a26.83,26.83,0,0,1-11.1,2.34,29.65,29.65,0,0,1-14-3.24,23.41,23.41,0,0,1-9.72-9.6,31.14,31.14,0,0,1-3.54-15.36V23.28h13.56V60.12q0,8.88,4.44,13.62t12.12,4.74q7.68,0,12.18-4.74t4.5-13.62V23.28Z"/></g></g></svg>