<svg xmlns="http://www.w3.org/2000/svg" viewBox="0 0 544.67 96.38"><defs><style>.cls-1{fill:#504646;}.cls-2{fill:#fff2dc;stroke:#504646;stroke-miterlimit:10;}</style></defs><g id="レイヤー_2" data-name="レイヤー 2"><g id="contents07"><path class="cls-1" d="M19.9,86.7A24.81,24.81,0,0,1,9.34,78.36,21.18,21.18,0,0,1,5.5,65.76H20.14a13.22,13.22,0,0,0,4.26,8.88Q28.18,78.12,35,78.12q7.08,0,11-3.42a11.12,11.12,0,0,0,4-8.82A9.63,9.63,0,0,0,47.56,59,16.46,16.46,0,0,0,41.44,55,92.29,92.29,0,0,0,31.3,51.84,95,95,0,0,1,18,47.46a21.91,21.91,0,0,1-8.7-6.9q-3.6-4.68-3.6-12.48a22.18,22.18,0,0,1,3.6-12.6A23,23,0,0,1,19.42,7.2a36.63,36.63,0,0,1,15-2.88q12.12,0,19.86,6.06T62.86,27H47.74a11,11,0,0,0-4.32-7.8Q39.46,16,33,16a14.81,14.81,0,0,0-9.6,3q-3.72,3-3.72,8.64A8.77,8.77,0,0,0,22,33.9a16.52,16.52,0,0,0,5.94,3.9,92.21,92.21,0,0,0,9.84,3.12,102.73,102.73,0,0,1,13.5,4.56,22.47,22.47,0,0,1,8.88,7q3.66,4.74,3.66,12.66a22.76,22.76,0,0,1-3.42,12,24.67,24.67,0,0,1-10,9.06A32.84,32.84,0,0,1,35,89.64,37.35,37.35,0,0,1,19.9,86.7Z"/><path class="cls-1" d="M77.8,37.74A29.45,29.45,0,0,1,89.26,25.8a33.15,33.15,0,0,1,16.8-4.2q12,0,19.86,5.7t10.62,16.26H121.78A15.61,15.61,0,0,0,116,35.88a17,17,0,0,0-10-2.76q-8.4,0-13.38,5.94t-5,16.62q0,10.68,5,16.68a16.49,16.49,0,0,0,13.38,6q11.88,0,15.72-10.44h14.76a29.55,29.55,0,0,1-10.8,16q-7.92,5.94-19.68,5.94a32.78,32.78,0,0,1-16.8-4.26,29.86,29.86,0,0,1-11.46-12,37.47,37.47,0,0,1-4.14-17.94A37.47,37.47,0,0,1,77.8,37.74Z"/><path class="cls-1" d="M196,24.84a23.06,23.06,0,0,1,9.36,9.6,32,32,0,0,1,3.42,15.36v39H195.23v-37q0-8.88-4.44-13.62t-12.12-4.74q-7.68,0-12.18,4.74T162,51.84v37H148.31V0H162V30.36a22.94,22.94,0,0,1,8.82-6.48,29.49,29.49,0,0,1,11.7-2.28A27.73,27.73,0,0,1,196,24.84Z"/><path class="cls-1" d="M284.86,60.84H234.33a18.31,18.31,0,0,0,5.89,12.72,18.53,18.53,0,0,0,13,4.8q11,0,15.6-9.24h14.76a29.84,29.84,0,0,1-10.86,14.94q-7.87,5.82-19.5,5.82a33.72,33.72,0,0,1-17-4.26,30.18,30.18,0,0,1-11.76-12,36.5,36.5,0,0,1-4.26-17.94,37.47,37.47,0,0,1,4.14-17.94A29.12,29.12,0,0,1,236,25.8a34.61,34.61,0,0,1,17.22-4.2,33.7,33.7,0,0,1,16.68,4.08,28.81,28.81,0,0,1,11.39,11.46,34.51,34.51,0,0,1,4.08,17A44.08,44.08,0,0,1,284.86,60.84Zm-13.8-11a15.63,15.63,0,0,0-5.4-12.12,19.34,19.34,0,0,0-13.08-4.56,17.55,17.55,0,0,0-12.12,4.5,18.76,18.76,0,0,0-6,12.18Z"/><path class="cls-1" d="M297.67,37.8a30.17,30.17,0,0,1,27.18-16.2,31,31,0,0,1,12.78,2.82,26.15,26.15,0,0,1,10,7.5V0h13.8V88.8h-13.8v-10a25.61,25.61,0,0,1-9.3,7.92,28.86,28.86,0,0,1-13.62,3.12A29.59,29.59,0,0,1,309,85.5a30.91,30.91,0,0,1-11.28-12.24,37.65,37.65,0,0,1-4.14-17.82A36.59,36.59,0,0,1,297.67,37.8Zm47.16,6a19.8,19.8,0,0,0-7.38-7.68,19.31,19.31,0,0,0-9.84-2.64,19.65,19.65,0,0,0-9.84,2.58,19.46,19.46,0,0,0-7.38,7.56,23.6,23.6,0,0,0-2.82,11.82,24.63,24.63,0,0,0,2.82,12,19.9,19.9,0,0,0,7.44,7.86,19.08,19.08,0,0,0,9.78,2.7,19.31,19.31,0,0,0,9.84-2.64,19.7,19.7,0,0,0,7.38-7.74,24.28,24.28,0,0,0,2.82-11.94A23.94,23.94,0,0,0,344.83,43.8Z"/><path class="cls-1" d="M437.52,22.68V88.8H423.84V81a22.14,22.14,0,0,1-8.46,6.42,26.83,26.83,0,0,1-11.1,2.34,29.65,29.65,0,0,1-14-3.24,23.41,23.41,0,0,1-9.72-9.6A31.14,31.14,0,0,1,377,61.56V22.68H390.6V59.52q0,8.88,4.44,13.62t12.12,4.74q7.68,0,12.18-4.74t4.5-13.62V22.68Z"/><path class="cls-1" d="M467.23,0V88.8H453.55V0Z"/><path class="cls-1" d="M544.2,60.84H493.67a18.31,18.31,0,0,0,5.89,12.72,18.53,18.53,0,0,0,13,4.8q11,0,15.6-9.24h14.76A29.84,29.84,0,0,1,532,84.06q-7.87,5.82-19.5,5.82a33.72,33.72,0,0,1-17-4.26,30.18,30.18,0,0,1-11.76-12,36.5,36.5,0,0,1-4.26-17.94,37.47,37.47,0,0,1,4.14-17.94A29.09,29.09,0,0,1,495.29,25.8a34.68,34.68,0,0,1,17.23-4.2,33.73,33.73,0,0,1,16.68,4.08,28.81,28.81,0,0,1,11.39,11.46,34.51,34.51,0,0,1,4.08,17A44.08,44.08,0,0,1,544.2,60.84Zm-13.8-11A15.63,15.63,0,0,0,525,37.68a19.34,19.34,0,0,0-13.08-4.56,17.59,17.59,0,0,0-12.13,4.5,18.85,18.85,0,0,0-6,12.18Z"/><path class="cls-2" d="M14.9,92.7A24.81,24.81,0,0,1,4.34,84.36,21.18,21.18,0,0,1,.5,71.76H15.14a13.22,13.22,0,0,0,4.26,8.88Q23.18,84.12,30,84.12q7.08,0,11-3.42a11.12,11.12,0,0,0,4-8.82A9.63,9.63,0,0,0,42.56,65,16.46,16.46,0,0,0,36.44,61,92.29,92.29,0,0,0,26.3,57.84,95,95,0,0,1,13,53.46a21.91,21.91,0,0,1-8.7-6.9Q.74,41.88.74,34.08a22.18,22.18,0,0,1,3.6-12.6A23,23,0,0,1,14.42,13.2a36.63,36.63,0,0,1,15-2.88q12.12,0,19.86,6.06T57.86,33H42.74a11,11,0,0,0-4.32-7.8Q34.46,22,28,22a14.81,14.81,0,0,0-9.6,3q-3.72,3-3.72,8.64A8.77,8.77,0,0,0,17,39.9a16.52,16.52,0,0,0,5.94,3.9,92.21,92.21,0,0,0,9.84,3.12,102.73,102.73,0,0,1,13.5,4.56,22.47,22.47,0,0,1,8.88,7q3.66,4.74,3.66,12.66a22.76,22.76,0,0,1-3.42,12,24.67,24.67,0,0,1-10,9.06A32.84,32.84,0,0,1,30,95.64,37.35,37.35,0,0,1,14.9,92.7Z"/><path class="cls-2" d="M72.8,43.74A29.45,29.45,0,0,1,84.26,31.8a33.15,33.15,0,0,1,16.8-4.2q12,0,19.86,5.7t10.62,16.26H116.78A15.61,15.61,0,0,0,111,41.88a17,17,0,0,0-10-2.76q-8.4,0-13.38,5.94t-5,16.62q0,10.68,5,16.68a16.49,16.49,0,0,0,13.38,6q11.88,0,15.72-10.44h14.76a29.55,29.55,0,0,1-10.8,16q-7.92,5.94-19.68,5.94a32.78,32.78,0,0,1-16.8-4.26,29.86,29.86,0,0,1-11.46-12,37.47,37.47,0,0,1-4.14-17.94A37.47,37.47,0,0,1,72.8,43.74Z"/><path class="cls-2" d="M191,30.84a23.06,23.06,0,0,1,9.36,9.6,32,32,0,0,1,3.42,15.36v39H190.23v-37q0-8.88-4.44-13.62t-12.12-4.74q-7.68,0-12.18,4.74T157,57.84v37H143.31V6H157V36.36a22.94,22.94,0,0,1,8.82-6.48,29.49,29.49,0,0,1,11.7-2.28A27.73,27.73,0,0,1,191,30.84Z"/><path class="cls-2" d="M279.86,66.84H229.33a18.31,18.31,0,0,0,5.89,12.72,18.53,18.53,0,0,0,13,4.8q11,0,15.6-9.24h14.76a29.84,29.84,0,0,1-10.86,14.94q-7.87,5.82-19.5,5.82a33.72,33.72,0,0,1-17-4.26,30.18,30.18,0,0,1-11.76-12,36.5,36.5,0,0,1-4.26-17.94,37.47,37.47,0,0,1,4.14-17.94A29.12,29.12,0,0,1,231,31.8a34.61,34.61,0,0,1,17.22-4.2,33.7,33.7,0,0,1,16.68,4.08,28.81,28.81,0,0,1,11.39,11.46,34.51,34.51,0,0,1,4.08,17A44.08,44.08,0,0,1,279.86,66.84Zm-13.8-11a15.63,15.63,0,0,0-5.4-12.12,19.34,19.34,0,0,0-13.08-4.56,17.55,17.55,0,0,0-12.12,4.5,18.76,18.76,0,0,0-6,12.18Z"/><path class="cls-2" d="M292.67,43.8a30.17,30.17,0,0,1,27.18-16.2,31,31,0,0,1,12.78,2.82,26.15,26.15,0,0,1,10,7.5V6h13.8V94.8h-13.8v-10a25.61,25.61,0,0,1-9.3,7.92,28.86,28.86,0,0,1-13.62,3.12A29.59,29.59,0,0,1,304,91.5a30.91,30.91,0,0,1-11.28-12.24,37.65,37.65,0,0,1-4.14-17.82A36.59,36.59,0,0,1,292.67,43.8Zm47.16,6a19.8,19.8,0,0,0-7.38-7.68,19.31,19.31,0,0,0-9.84-2.64,19.65,19.65,0,0,0-9.84,2.58,19.46,19.46,0,0,0-7.38,7.56,23.6,23.6,0,0,0-2.82,11.82,24.63,24.63,0,0,0,2.82,12,19.9,19.9,0,0,0,7.44,7.86,19.08,19.08,0,0,0,9.78,2.7,19.31,19.31,0,0,0,9.84-2.64,19.7,19.7,0,0,0,7.38-7.74,24.28,24.28,0,0,0,2.82-11.94A23.94,23.94,0,0,0,339.83,49.8Z"/><path class="cls-2" d="M432.52,28.68V94.8H418.84V87a22.14,22.14,0,0,1-8.46,6.42,26.83,26.83,0,0,1-11.1,2.34,29.65,29.65,0,0,1-14-3.24,23.41,23.41,0,0,1-9.72-9.6A31.14,31.14,0,0,1,372,67.56V28.68H385.6V65.52q0,8.88,4.44,13.62t12.12,4.74q7.68,0,12.18-4.74t4.5-13.62V28.68Z"/><path class="cls-2" d="M462.23,6V94.8H448.55V6Z"/><path class="cls-2" d="M539.2,66.84H488.67a18.31,18.31,0,0,0,5.89,12.72,18.53,18.53,0,0,0,13,4.8q11,0,15.6-9.24h14.76A29.84,29.84,0,0,1,527,90.06q-7.87,5.82-19.5,5.82a33.72,33.72,0,0,1-17-4.26,30.18,30.18,0,0,1-11.76-12,36.5,36.5,0,0,1-4.26-17.94,37.47,37.47,0,0,1,4.14-17.94A29.09,29.09,0,0,1,490.29,31.8a34.68,34.68,0,0,1,17.23-4.2,33.73,33.73,0,0,1,16.68,4.08,28.81,28.81,0,0,1,11.39,11.46,34.51,34.51,0,0,1,4.08,17A44.08,44.08,0,0,1,539.2,66.84Zm-13.8-11A15.63,15.63,0,0,0,520,43.68a19.34,19.34,0,0,0-13.08-4.56,17.59,17.59,0,0,0-12.13,4.5,18.85,18.85,0,0,0-6,12.18Z"/></g></g></svg>