<?xml version="1.0" encoding="utf-8"?>
<!-- Generator: Adobe Illustrator 24.3.0, SVG Export Plug-In . SVG Version: 6.00 Build 0)  -->
<svg version="1.1" id="レイヤー_1" xmlns="http://www.w3.org/2000/svg" xmlns:xlink="http://www.w3.org/1999/xlink" x="0px"
	 y="0px" viewBox="0 0 1200 290" style="enable-background:new 0 0 1200 290;" xml:space="preserve">
<style type="text/css">
	.st0{enable-background:new    ;}
	.st1{fill:#D0612E;}
	.st2{fill:#FFF2DC;}
	.st3{fill:none;stroke:#D0612E;stroke-miterlimit:10;}
</style>
<g id="レイヤー_2_1_">
	<g id="ttl_sp_1.8">
		<g class="st0">
			<path class="st1" d="M827.3,235.9c0.9,0,1.9,0,3-0.1c-0.1-0.6-0.2-1.3-0.2-1.9c0-4.5,3.7-8.3,8.3-8.3c4.6,0,8.4,3.7,8.4,8.3
				c0,4.6-3.7,8.3-8.4,8.3c-0.6,0-1.3-0.1-1.9-0.2l-0.4,1.4c-1.6,7.3-5,18.7-10.8,26.4c-6.6,8.5-15.6,15.4-28.6,19.5l-6.2-6.8
				c14.1-3.5,22.2-9.6,28.2-17.1c5-6.3,8.1-15.6,9-22.1h-35.4c-3.1,0-6,0.1-7.8,0.2v-8c2,0.3,5.4,0.5,7.8,0.5H827.3z M842.9,233.8
				c0-2.4-2-4.5-4.5-4.5c-2.4,0-4.5,2-4.5,4.5c0,2.5,2,4.5,4.5,4.5C840.9,238.3,842.9,236.3,842.9,233.8z"/>
			<path class="st1" d="M847.1,283.8c6.2-4.4,10.3-10.9,12.4-17.5c2.1-6.4,2.1-20.5,2.1-28.7c0-2.4-0.1-4.2-0.6-5.8h8.4
				c-0.1,0.6-0.4,3.2-0.4,5.8c0,8.2-0.3,23.5-2.2,30.7c-2.2,7.9-6.7,15-12.8,20.2L847.1,283.8z M880.2,284.4
				c0.3-1.2,0.5-2.9,0.5-4.5v-42.6c0-3-0.4-5.3-0.4-5.8h8.4c-0.1,0.4-0.4,2.8-0.4,5.8v39.8c6.3-2.8,14.4-8.9,19.6-16.6l4.3,6.2
				c-6.1,8.1-16.2,15.7-24.5,19.9c-1.2,0.6-1.9,1.2-2.7,1.8L880.2,284.4z"/>
			<path class="st1" d="M934.5,250c9.5,2.8,23.3,8,30.5,11.5l-3.2,7.8c-7.6-4-19.4-8.6-27.3-11.2l0.1,22.2c0,2.2,0.2,6.6,0.5,9.2
				h-8.8c0.4-2.5,0.6-6.5,0.6-9.2v-41.6c0-2.3-0.2-5.7-0.6-8.1h8.9c-0.2,2.4-0.6,5.5-0.6,8.1V250z M955.1,246.5
				c-1.9-4.1-3.9-7.6-6.3-11l4.8-2.1c1.9,2.8,5,7.5,6.6,10.9L955.1,246.5z M964.4,242.7c-2.1-4.1-4.1-7.4-6.6-10.8l4.8-2.2
				c1.9,2.7,5,7.3,6.7,10.7L964.4,242.7z"/>
			<path class="st1" d="M994.8,259.9c-3.2,6.3-9.8,15.6-13.8,19.9l-6.2-4.2c4.8-4.5,10.7-12.7,13.6-18.7L994.8,259.9z M1010.6,249.1
				v34.3c0,3.9-2,6.1-6.7,6.1c-3.5,0-7.7-0.1-10.9-0.5l-0.6-7.1c3.1,0.6,6.3,0.8,8.2,0.8s2.7-0.7,2.7-2.7v-30.9H984
				c-2.2,0-4.5,0.1-6.5,0.2v-7.6c2,0.2,4.2,0.4,6.4,0.4h19.3v-6.7c0-1.7-0.3-4.5-0.6-5.6h8.5c-0.2,1-0.6,4-0.6,5.7v6.6h18.1
				c1.9,0,4.5-0.1,6.4-0.4v7.5c-2.1-0.1-4.5-0.1-6.3-0.1H1010.6z M1025.3,256.7c3.8,4.6,9.5,13.7,12.4,18.9l-6.6,3.7
				c-3-5.9-8.3-14.8-12-19.2L1025.3,256.7z M1022.2,232.4c0-4.5,3.6-8.1,8.1-8.1c4.5,0,8.1,3.6,8.1,8.1c0,4.5-3.7,8.1-8.1,8.1
				C1025.8,240.5,1022.2,236.9,1022.2,232.4z M1026,232.4c0,2.4,1.9,4.3,4.2,4.3c2.4,0,4.3-1.9,4.3-4.3c0-2.4-1.9-4.3-4.3-4.3
				C1027.9,228.1,1026,230.1,1026,232.4z"/>
			<path class="st1" d="M1046.9,253.9c2.3,0.2,6.8,0.4,10.7,0.4h39.1c3.5,0,6.3-0.3,8.1-0.4v8.9c-1.6-0.1-4.8-0.3-8-0.3h-39.2
				c-4,0-8.3,0.1-10.7,0.3V253.9z"/>
			<path class="st1" d="M1172.9,241.1c-0.7,1.2-1.5,3-2,4.4c-1.9,6.9-6.2,16.6-12.7,24.5c-6.6,8.1-15.3,14.8-28.8,19.9l-6.7-6
				c13.9-4.2,22.5-10.6,28.9-18c5.3-6.1,9.6-15.2,10.9-21.2H1140c-4.6,6.2-10.7,12.5-18.3,17.6l-6.3-4.7
				c12.5-7.5,19.2-17.5,22.6-23.8c0.9-1.4,2.1-4.4,2.7-6.5l8.4,2.7c-1.4,2.2-3,5-3.7,6.4c-0.3,0.6-0.6,1.2-1,1.8h17.3
				c2,0,4-0.2,5.4-0.7L1172.9,241.1z"/>
		</g>
		<g class="st0">
			<path class="st1" d="M129.7,76c-3.6,6.8-9.4,12.3-17.3,16.5c-7.9,4.2-18.1,6.4-30.5,6.4H54.8v60.9H30.2V9.7H82
				c11.5,0,21.3,2,29.3,5.9c8,4,14,9.3,17.9,16.1c4,6.8,5.9,14.3,5.9,22.7C135.1,62.1,133.3,69.3,129.7,76z M103,72.5
				c4.6-4.2,6.9-10.3,6.9-18c0-16.4-9.3-24.6-27.9-24.6H54.8v49H82C91.4,78.8,98.3,76.7,103,72.5z"/>
			<path class="st1" d="M266.5,40.8v119h-24.6v-14c-3.9,4.9-9,8.7-15.2,11.6c-6.3,2.8-12.9,4.2-20,4.2c-9.4,0-17.7-1.9-25.2-5.8
				c-7.4-3.9-13.2-9.6-17.5-17.3c-4.2-7.6-6.4-16.8-6.4-27.6v-70H182v66.3c0,10.7,2.7,18.8,8,24.5c5.3,5.7,12.6,8.5,21.8,8.5
				c9.2,0,16.5-2.8,21.9-8.5c5.4-5.7,8.1-13.9,8.1-24.5V40.8H266.5z"/>
			<path class="st1" d="M323.5,0v159.8h-24.6V0H323.5z"/>
			<path class="st1" d="M380.5,0v159.8h-24.6V0H380.5z"/>
			<path class="st1" d="M521.1,109.5h-90.9c0.7,9.5,4.2,17.1,10.6,22.9c6.3,5.8,14.1,8.6,23.3,8.6c13.2,0,22.6-5.5,28.1-16.6h26.6
				c-3.6,10.9-10.1,19.9-19.5,26.9c-9.4,7-21.1,10.5-35.1,10.5c-11.4,0-21.6-2.6-30.6-7.7c-9-5.1-16.1-12.3-21.2-21.6
				c-5.1-9.3-7.7-20.1-7.7-32.3c0-12.2,2.5-23,7.5-32.3c5-9.3,12-16.4,21-21.5c9-5,19.3-7.6,31-7.6c11.2,0,21.2,2.5,30,7.3
				c8.8,4.9,15.6,11.8,20.5,20.6c4.9,8.9,7.3,19,7.3,30.6C522,101.9,521.7,105.9,521.1,109.5z M496.3,89.6
				c-0.1-9.1-3.4-16.3-9.7-21.8c-6.3-5.5-14.2-8.2-23.5-8.2c-8.5,0-15.8,2.7-21.8,8.1s-9.6,12.7-10.8,21.9H496.3z"/>
			<path class="st1" d="M545.4,68c5-9.2,11.7-16.4,20.3-21.5c8.6-5.1,18.1-7.7,28.6-7.7c7.8,0,15.4,1.7,23,5.1
				c7.6,3.4,13.6,7.9,18,13.5V0h24.8v159.8h-24.8v-17.9c-4,5.8-9.6,10.5-16.7,14.3s-15.3,5.6-24.5,5.6c-10.4,0-19.8-2.6-28.4-7.9
				c-8.6-5.3-15.3-12.6-20.3-22c-5-9.4-7.5-20.1-7.5-32.1C538,87.8,540.5,77.3,545.4,68z M630.3,78.8c-3.4-6-7.8-10.7-13.3-13.8
				c-5.5-3.2-11.4-4.8-17.7-4.8c-6.3,0-12.2,1.5-17.7,4.6c-5.5,3.1-9.9,7.6-13.3,13.6c-3.4,6-5.1,13.1-5.1,21.3s1.7,15.4,5.1,21.6
				c3.4,6.2,7.8,10.9,13.4,14.1c5.5,3.2,11.4,4.9,17.6,4.9c6.3,0,12.2-1.6,17.7-4.8c5.5-3.2,9.9-7.8,13.3-13.9
				c3.4-6.1,5.1-13.3,5.1-21.5S633.7,84.9,630.3,78.8z"/>
			<path class="st1" d="M848.4,76c-3.6,6.8-9.4,12.3-17.3,16.5c-7.9,4.2-18.1,6.4-30.5,6.4h-27.2v60.9h-24.6V9.7h51.8
				c11.5,0,21.3,2,29.3,5.9c8,4,14,9.3,17.9,16.1c4,6.8,5.9,14.3,5.9,22.7C853.8,62.1,852,69.3,848.4,76z M821.6,72.5
				c4.6-4.2,6.9-10.3,6.9-18c0-16.4-9.3-24.6-27.9-24.6h-27.2v49h27.2C810,78.8,817,76.7,821.6,72.5z"/>
			<path class="st1" d="M898.5,154.1c-9.1-5.1-16.2-12.3-21.4-21.6c-5.2-9.3-7.8-20.1-7.8-32.3c0-12.1,2.7-22.8,8-32.2
				c5.3-9.4,12.6-16.6,21.8-21.6c9.2-5,19.5-7.6,30.9-7.6c11.4,0,21.7,2.5,30.9,7.6c9.2,5,16.5,12.2,21.8,21.6
				c5.3,9.4,8,20.1,8,32.2c0,12.1-2.7,22.8-8.2,32.2c-5.5,9.4-12.9,16.6-22.4,21.7c-9.4,5.1-19.8,7.7-31.2,7.7
				C917.7,161.8,907.5,159.2,898.5,154.1z M946.7,135.9c5.5-3,10-7.6,13.5-13.6s5.2-13.4,5.2-22c0-8.6-1.7-15.9-5-21.9
				c-3.3-6-7.7-10.5-13.2-13.5c-5.5-3-11.4-4.5-17.7-4.5c-6.3,0-12.2,1.5-17.6,4.5s-9.7,7.5-12.9,13.5c-3.2,6-4.8,13.3-4.8,21.9
				c0,12.8,3.3,22.7,9.8,29.7c6.6,7,14.8,10.5,24.7,10.5C935.3,140.4,941.2,138.9,946.7,135.9z"/>
			<path class="st1" d="M1054.1,44c6-3.4,13.1-5.1,21.3-5.1v25.5h-6.3c-9.6,0-17,2.5-21.9,7.3c-5,4.9-7.5,13.4-7.5,25.5v62.6h-24.6
				v-119h24.6v17.3C1043.3,52.1,1048.1,47.3,1054.1,44z"/>
			<path class="st1" d="M1145.1,100.4l54.9,59.4h-33.3l-44.1-51.2v51.2H1098V0h24.6v92.9l43.2-52.1h34.1L1145.1,100.4z"/>
		</g>
		<g class="st0">
			<path class="st2" d="M118.9,86.8c-3.6,6.8-9.4,12.3-17.3,16.5c-7.9,4.2-18.1,6.4-30.5,6.4H44v60.9H19.4V20.5h51.8
				c11.5,0,21.3,2,29.3,5.9c8,4,14,9.3,17.9,16.1c4,6.8,5.9,14.3,5.9,22.7C124.3,72.9,122.5,80.1,118.9,86.8z M92.2,83.3
				c4.6-4.2,6.9-10.3,6.9-18c0-16.4-9.3-24.6-27.9-24.6H44v49h27.2C80.6,89.6,87.5,87.5,92.2,83.3z"/>
			<path class="st2" d="M255.7,51.6v119H231v-14c-3.9,4.9-9,8.7-15.2,11.6c-6.3,2.8-12.9,4.2-20,4.2c-9.4,0-17.7-1.9-25.2-5.8
				c-7.4-3.9-13.2-9.6-17.5-17.3c-4.2-7.6-6.4-16.8-6.4-27.6v-70h24.4v66.3c0,10.7,2.7,18.8,8,24.5c5.3,5.7,12.6,8.5,21.8,8.5
				c9.2,0,16.5-2.8,21.9-8.5c5.4-5.7,8.1-13.9,8.1-24.5V51.6H255.7z"/>
			<path class="st2" d="M312.7,10.8v159.8h-24.6V10.8H312.7z"/>
			<path class="st2" d="M369.7,10.8v159.8h-24.6V10.8H369.7z"/>
			<path class="st2" d="M510.3,120.3h-90.9c0.7,9.5,4.2,17.1,10.6,22.9c6.3,5.8,14.1,8.6,23.3,8.6c13.2,0,22.6-5.5,28.1-16.6h26.6
				c-3.6,10.9-10.1,19.9-19.5,26.9c-9.4,7-21.1,10.5-35.1,10.5c-11.4,0-21.6-2.6-30.6-7.7c-9-5.1-16.1-12.3-21.2-21.6
				c-5.1-9.3-7.7-20.1-7.7-32.3c0-12.2,2.5-23,7.5-32.3c5-9.3,12-16.4,21-21.5c9-5,19.3-7.6,31-7.6c11.2,0,21.2,2.5,30,7.3
				c8.8,4.9,15.6,11.8,20.5,20.6c4.9,8.9,7.3,19,7.3,30.6C511.2,112.7,510.9,116.7,510.3,120.3z M485.5,100.4
				c-0.1-9.1-3.4-16.3-9.7-21.8c-6.3-5.5-14.2-8.2-23.5-8.2c-8.5,0-15.8,2.7-21.8,8.1s-9.6,12.7-10.8,21.9H485.5z"/>
			<path class="st2" d="M534.6,78.9c5-9.2,11.7-16.4,20.3-21.5c8.6-5.1,18.1-7.7,28.6-7.7c7.8,0,15.4,1.7,23,5.1
				c7.6,3.4,13.6,7.9,18,13.5V10.8h24.8v159.8h-24.8v-17.9c-4,5.8-9.6,10.5-16.7,14.3s-15.3,5.6-24.5,5.6c-10.4,0-19.8-2.6-28.4-7.9
				c-8.6-5.3-15.3-12.6-20.3-22c-5-9.4-7.5-20.1-7.5-32.1C527.2,98.7,529.7,88.1,534.6,78.9z M619.5,89.6c-3.4-6-7.8-10.7-13.3-13.8
				c-5.5-3.2-11.4-4.8-17.7-4.8c-6.3,0-12.2,1.5-17.7,4.6c-5.5,3.1-9.9,7.6-13.3,13.6c-3.4,6-5.1,13.1-5.1,21.3s1.7,15.4,5.1,21.6
				c3.4,6.2,7.8,10.9,13.4,14.1c5.5,3.2,11.4,4.9,17.6,4.9c6.3,0,12.2-1.6,17.7-4.8c5.5-3.2,9.9-7.8,13.3-13.9
				c3.4-6.1,5.1-13.3,5.1-21.5S622.9,95.7,619.5,89.6z"/>
			<path class="st2" d="M837.6,86.8c-3.6,6.8-9.4,12.3-17.3,16.5c-7.9,4.2-18.1,6.4-30.5,6.4h-27.2v60.9H738V20.5h51.8
				c11.5,0,21.3,2,29.3,5.9c8,4,14,9.3,17.9,16.1c4,6.8,5.9,14.3,5.9,22.7C843,72.9,841.2,80.1,837.6,86.8z M810.8,83.3
				c4.6-4.2,6.9-10.3,6.9-18c0-16.4-9.3-24.6-27.9-24.6h-27.2v49h27.2C799.2,89.6,806.2,87.5,810.8,83.3z"/>
			<path class="st2" d="M887.7,164.9c-9.1-5.1-16.2-12.3-21.4-21.6c-5.2-9.3-7.8-20.1-7.8-32.3c0-12.1,2.7-22.8,8-32.2
				c5.3-9.4,12.6-16.6,21.8-21.6c9.2-5,19.5-7.6,30.9-7.6c11.4,0,21.7,2.5,30.9,7.6c9.2,5,16.5,12.2,21.8,21.6
				c5.3,9.4,8,20.1,8,32.2c0,12.1-2.7,22.8-8.2,32.2c-5.5,9.4-12.9,16.6-22.4,21.7c-9.4,5.1-19.8,7.7-31.2,7.7
				C906.9,172.6,896.7,170,887.7,164.9z M935.9,146.7c5.5-3,10-7.6,13.5-13.6c3.5-6,5.2-13.4,5.2-22c0-8.6-1.7-15.9-5-21.9
				c-3.3-6-7.7-10.5-13.2-13.5c-5.5-3-11.4-4.5-17.7-4.5c-6.3,0-12.2,1.5-17.6,4.5c-5.4,3-9.7,7.5-12.9,13.5
				c-3.2,6-4.8,13.3-4.8,21.9c0,12.8,3.3,22.7,9.8,29.7c6.6,7,14.8,10.5,24.7,10.5C924.5,151.2,930.4,149.7,935.9,146.7z"/>
			<path class="st2" d="M1043.3,54.8c6-3.4,13.1-5.1,21.3-5.1v25.5h-6.3c-9.6,0-17,2.5-21.9,7.3c-5,4.9-7.5,13.4-7.5,25.5v62.6
				h-24.6v-119h24.6v17.3C1032.5,62.9,1037.3,58.2,1043.3,54.8z"/>
			<path class="st2" d="M1134.3,111.2l54.9,59.4h-33.3l-44.1-51.2v51.2h-24.6V10.8h24.6v92.9l43.2-52.1h34.1L1134.3,111.2z"/>
		</g>
		<g class="st0">
			<path class="st3" d="M118.9,86.8c-3.6,6.8-9.4,12.3-17.3,16.5c-7.9,4.2-18.1,6.4-30.5,6.4H44v60.9H19.4V20.5h51.8
				c11.5,0,21.3,2,29.3,5.9c8,4,14,9.3,17.9,16.1c4,6.8,5.9,14.3,5.9,22.7C124.3,72.9,122.5,80.1,118.9,86.8z M92.2,83.3
				c4.6-4.2,6.9-10.3,6.9-18c0-16.4-9.3-24.6-27.9-24.6H44v49h27.2C80.6,89.6,87.5,87.5,92.2,83.3z"/>
			<path class="st3" d="M255.7,51.6v119H231v-14c-3.9,4.9-9,8.7-15.2,11.6c-6.3,2.8-12.9,4.2-20,4.2c-9.4,0-17.7-1.9-25.2-5.8
				c-7.4-3.9-13.2-9.6-17.5-17.3c-4.2-7.6-6.4-16.8-6.4-27.6v-70h24.4v66.3c0,10.7,2.7,18.8,8,24.5c5.3,5.7,12.6,8.5,21.8,8.5
				c9.2,0,16.5-2.8,21.9-8.5c5.4-5.7,8.1-13.9,8.1-24.5V51.6H255.7z"/>
			<path class="st3" d="M312.7,10.8v159.8h-24.6V10.8H312.7z"/>
			<path class="st3" d="M369.7,10.8v159.8h-24.6V10.8H369.7z"/>
			<path class="st3" d="M510.3,120.3h-90.9c0.7,9.5,4.2,17.1,10.6,22.9c6.3,5.8,14.1,8.6,23.3,8.6c13.2,0,22.6-5.5,28.1-16.6h26.6
				c-3.6,10.9-10.1,19.9-19.5,26.9c-9.4,7-21.1,10.5-35.1,10.5c-11.4,0-21.6-2.6-30.6-7.7c-9-5.1-16.1-12.3-21.2-21.6
				c-5.1-9.3-7.7-20.1-7.7-32.3c0-12.2,2.5-23,7.5-32.3c5-9.3,12-16.4,21-21.5c9-5,19.3-7.6,31-7.6c11.2,0,21.2,2.5,30,7.3
				c8.8,4.9,15.6,11.8,20.5,20.6c4.9,8.9,7.3,19,7.3,30.6C511.2,112.7,510.9,116.7,510.3,120.3z M485.5,100.4
				c-0.1-9.1-3.4-16.3-9.7-21.8c-6.3-5.5-14.2-8.2-23.5-8.2c-8.5,0-15.8,2.7-21.8,8.1s-9.6,12.7-10.8,21.9H485.5z"/>
			<path class="st3" d="M534.6,78.9c5-9.2,11.7-16.4,20.3-21.5c8.6-5.1,18.1-7.7,28.6-7.7c7.8,0,15.4,1.7,23,5.1
				c7.6,3.4,13.6,7.9,18,13.5V10.8h24.8v159.8h-24.8v-17.9c-4,5.8-9.6,10.5-16.7,14.3s-15.3,5.6-24.5,5.6c-10.4,0-19.8-2.6-28.4-7.9
				c-8.6-5.3-15.3-12.6-20.3-22c-5-9.4-7.5-20.1-7.5-32.1C527.2,98.7,529.7,88.1,534.6,78.9z M619.5,89.6c-3.4-6-7.8-10.7-13.3-13.8
				c-5.5-3.2-11.4-4.8-17.7-4.8c-6.3,0-12.2,1.5-17.7,4.6c-5.5,3.1-9.9,7.6-13.3,13.6c-3.4,6-5.1,13.1-5.1,21.3s1.7,15.4,5.1,21.6
				c3.4,6.2,7.8,10.9,13.4,14.1c5.5,3.2,11.4,4.9,17.6,4.9c6.3,0,12.2-1.6,17.7-4.8c5.5-3.2,9.9-7.8,13.3-13.9
				c3.4-6.1,5.1-13.3,5.1-21.5S622.9,95.7,619.5,89.6z"/>
			<path class="st3" d="M837.6,86.8c-3.6,6.8-9.4,12.3-17.3,16.5c-7.9,4.2-18.1,6.4-30.5,6.4h-27.2v60.9H738V20.5h51.8
				c11.5,0,21.3,2,29.3,5.9c8,4,14,9.3,17.9,16.1c4,6.8,5.9,14.3,5.9,22.7C843,72.9,841.2,80.1,837.6,86.8z M810.8,83.3
				c4.6-4.2,6.9-10.3,6.9-18c0-16.4-9.3-24.6-27.9-24.6h-27.2v49h27.2C799.2,89.6,806.2,87.5,810.8,83.3z"/>
			<path class="st3" d="M887.7,164.9c-9.1-5.1-16.2-12.3-21.4-21.6c-5.2-9.3-7.8-20.1-7.8-32.3c0-12.1,2.7-22.8,8-32.2
				c5.3-9.4,12.6-16.6,21.8-21.6c9.2-5,19.5-7.6,30.9-7.6c11.4,0,21.7,2.5,30.9,7.6c9.2,5,16.5,12.2,21.8,21.6
				c5.3,9.4,8,20.1,8,32.2c0,12.1-2.7,22.8-8.2,32.2c-5.5,9.4-12.9,16.6-22.4,21.7c-9.4,5.1-19.8,7.7-31.2,7.7
				C906.9,172.6,896.7,170,887.7,164.9z M935.9,146.7c5.5-3,10-7.6,13.5-13.6c3.5-6,5.2-13.4,5.2-22c0-8.6-1.7-15.9-5-21.9
				c-3.3-6-7.7-10.5-13.2-13.5c-5.5-3-11.4-4.5-17.7-4.5c-6.3,0-12.2,1.5-17.6,4.5c-5.4,3-9.7,7.5-12.9,13.5
				c-3.2,6-4.8,13.3-4.8,21.9c0,12.8,3.3,22.7,9.8,29.7c6.6,7,14.8,10.5,24.7,10.5C924.5,151.2,930.4,149.7,935.9,146.7z"/>
			<path class="st3" d="M1043.3,54.8c6-3.4,13.1-5.1,21.3-5.1v25.5h-6.3c-9.6,0-17,2.5-21.9,7.3c-5,4.9-7.5,13.4-7.5,25.5v62.6
				h-24.6v-119h24.6v17.3C1032.5,62.9,1037.3,58.2,1043.3,54.8z"/>
			<path class="st3" d="M1134.3,111.2l54.9,59.4h-33.3l-44.1-51.2v51.2h-24.6V10.8h24.6v92.9l43.2-52.1h34.1L1134.3,111.2z"/>
		</g>
	</g>
</g>
</svg>
