<?xml version="1.0" encoding="utf-8"?>
<!-- Generator: Adobe Illustrator 24.3.0, SVG Export Plug-In . SVG Version: 6.00 Build 0)  -->
<svg version="1.1" id="レイヤー_1" xmlns="http://www.w3.org/2000/svg" xmlns:xlink="http://www.w3.org/1999/xlink" x="0px"
	 y="0px" viewBox="0 0 1200 298" style="enable-background:new 0 0 1200 298;" xml:space="preserve">
<style type="text/css">
	.st0{enable-background:new    ;}
	.st1{fill:#B9420F;}
	.st2{fill:#FFF2DC;}
	.st3{fill:none;stroke:#B9420F;stroke-miterlimit:10;}
</style>
<g id="レイヤー_2_1_">
	<g id="ttl_sp_1.8">
		<g class="st0">
			<path class="st1" d="M52.9,243.2c-0.6,1.2-0.9,2.7-1.3,4.2c-1.6,7.3-4.9,18.8-10.7,26.4c-6.6,8.5-15.6,15.4-28.7,19.5L6,286.6
				c14-3.5,22.2-9.6,28.1-17.1c5-6.3,8.1-15.5,9-22.1H7.8c-3.1,0-6,0.1-7.8,0.3v-8.1c2,0.3,5.4,0.6,7.8,0.6h34.9
				c1.2,0,3-0.1,4.6-0.5L52.9,243.2z"/>
			<path class="st1" d="M112.1,254.9c-0.6,0.6-1.4,1.7-1.8,2.4c-2.2,3.7-8.6,12.7-14.5,16.9l-5.8-4c4.7-3,9.6-8.8,11.5-12.1l-33-0.1
				c-2.3,0-4.7,0.1-7.1,0.4V251c2.2,0.3,4.8,0.6,7.1,0.6h34.6c1.3,0,3.7-0.2,4.8-0.4L112.1,254.9z M87.7,262.4
				c-0.3,14.5-1.1,26.2-17.1,35l-6.2-5c1.7-0.6,3.5-1.4,5.4-2.7c9-6,10.4-13.3,10.4-22.6c0-1.6-0.2-3.2-0.5-4.7H87.7z"/>
			<path class="st1" d="M172.7,256.6c-0.4,0.8-0.9,1.9-1.1,2.4c-2.1,7.1-5.3,14.3-10.6,20.2c-7.4,8.2-16.6,12.7-25.8,15.3l-5.6-6.5
				c10.4-2.2,19.3-6.8,25.2-13c4.1-4.2,6.7-9.6,8-14.4h-36.7c-1.7,0-4.9,0.1-7.6,0.3v-7.5c2.8,0.3,5.5,0.5,7.6,0.5H163
				c1.9,0,3.7-0.3,4.6-0.6L172.7,256.6z M125.1,236.8c1.9,0.2,4.5,0.4,6.8,0.4H160c2.3,0,5.3-0.1,7.1-0.4v7.4
				c-1.8-0.1-4.7-0.2-7.1-0.2h-28c-2.2,0-4.8,0.1-6.8,0.2V236.8z"/>
			<path class="st1" d="M233.6,243.2c-0.6,1.2-0.9,2.7-1.3,4.2c-1.6,7.3-4.9,18.8-10.7,26.4c-6.6,8.5-15.6,15.4-28.7,19.5l-6.1-6.8
				c14-3.5,22.2-9.6,28.1-17.1c5-6.3,8.1-15.5,9-22.1h-35.4c-3.1,0-6,0.1-7.8,0.3v-8.1c2,0.3,5.4,0.6,7.8,0.6h34.9
				c1.2,0,3-0.1,4.6-0.5L233.6,243.2z"/>
			<path class="st1" d="M285.8,285.1c1.9,0,3.7-0.2,5.1-0.4v7.5c-1.5-0.1-3.9-0.2-5.1-0.2H246c-1.7,0-3.6,0.1-5.5,0.2v-7.5
				c1.8,0.2,3.8,0.4,5.5,0.4h15.8v-25.1h-12.3c-1.4,0-3.8,0.1-5.3,0.2v-7.2c1.6,0.2,4,0.4,5.3,0.4h33.1c1.8,0,3.7-0.1,5.3-0.4v7.2
				c-1.7-0.1-3.7-0.2-5.3-0.2h-13.2v25.1H285.8z"/>
			<path class="st1" d="M295.8,288.9c6.2-4.4,10.3-10.9,12.4-17.5c2.1-6.4,2.1-20.5,2.1-28.7c0-2.4-0.1-4.2-0.6-5.8h8.4
				c-0.1,0.6-0.4,3.2-0.4,5.8c0,8.2-0.3,23.5-2.2,30.7c-2.2,7.9-6.7,15-12.8,20.2L295.8,288.9z M328.9,289.5
				c0.3-1.2,0.5-2.9,0.5-4.5v-42.6c0-3-0.4-5.3-0.4-5.8h8.4c-0.1,0.4-0.4,2.8-0.4,5.8v39.8c6.3-2.8,14.4-8.9,19.6-16.6l4.3,6.2
				c-6.1,8.1-16.2,15.7-24.5,19.9c-1.2,0.6-1.9,1.2-2.7,1.8L328.9,289.5z"/>
		</g>
		<g class="st0">
			<path class="st1" d="M110.7,16.6v20.1H47V81h49.7v20.1H47v65.7H22.4V16.6H110.7z"/>
			<path class="st1" d="M132.9,75c5-9.2,11.7-16.4,20.3-21.5c8.6-5.1,18-7.7,28.4-7.7c9.4,0,17.5,1.8,24.5,5.5
				c7,3.7,12.6,8.2,16.7,13.7V47.7h24.8v119h-24.8V149c-4.2,5.6-9.9,10.3-17.1,14c-7.2,3.7-15.4,5.6-24.6,5.6
				c-10.2,0-19.6-2.6-28.1-7.9c-8.5-5.3-15.2-12.6-20.2-22c-5-9.4-7.5-20.1-7.5-32.1C125.4,94.8,127.9,84.2,132.9,75z M217.8,85.8
				c-3.4-6-7.8-10.7-13.3-13.8c-5.5-3.2-11.4-4.8-17.7-4.8c-6.3,0-12.2,1.5-17.7,4.6c-5.5,3.1-9.9,7.6-13.3,13.6
				c-3.4,6-5.1,13.1-5.1,21.3s1.7,15.4,5.1,21.6c3.4,6.2,7.8,10.9,13.4,14.1c5.5,3.2,11.4,4.9,17.6,4.9c6.3,0,12.2-1.6,17.7-4.8
				c5.5-3.2,9.9-7.8,13.3-13.9c3.4-6.1,5.1-13.3,5.1-21.5S221.1,91.8,217.8,85.8z"/>
			<path class="st1" d="M304.7,6.9v159.8h-24.6V6.9H304.7z"/>
			<path class="st1" d="M336.3,75c5-9.2,11.7-16.4,20.3-21.5c8.6-5.1,18-7.7,28.4-7.7c9.4,0,17.5,1.8,24.5,5.5
				c7,3.7,12.6,8.2,16.7,13.7V47.7h24.8v119h-24.8V149c-4.2,5.6-9.9,10.3-17.1,14c-7.2,3.7-15.4,5.6-24.6,5.6
				c-10.2,0-19.6-2.6-28.1-7.9c-8.5-5.3-15.2-12.6-20.2-22c-5-9.4-7.5-20.1-7.5-32.1C328.9,94.8,331.4,84.2,336.3,75z M421.2,85.8
				c-3.4-6-7.8-10.7-13.3-13.8c-5.5-3.2-11.4-4.8-17.7-4.8c-6.3,0-12.2,1.5-17.7,4.6c-5.5,3.1-9.9,7.6-13.3,13.6
				c-3.4,6-5.1,13.1-5.1,21.3s1.7,15.4,5.1,21.6c3.4,6.2,7.8,10.9,13.4,14.1c5.5,3.2,11.4,4.9,17.6,4.9c6.3,0,12.2-1.6,17.7-4.8
				c5.5-3.2,9.9-7.8,13.3-13.9c3.4-6.1,5.1-13.3,5.1-21.5S424.6,91.8,421.2,85.8z"/>
			<path class="st1" d="M533.4,67.8h-22v98.9h-24.8V67.8h-14V47.7h14v-8.4c0-13.7,3.6-23.7,10.9-29.9c7.3-6.3,18.7-9.4,34.2-9.4
				v20.5c-7.5,0-12.7,1.4-15.8,4.2c-3,2.8-4.5,7.7-4.5,14.6v8.4h22V67.8z"/>
			<path class="st1" d="M663.5,116.4h-90.9c0.7,9.5,4.2,17.1,10.6,22.9c6.3,5.8,14.1,8.6,23.3,8.6c13.2,0,22.6-5.5,28.1-16.6h26.6
				c-3.6,10.9-10.1,19.9-19.5,26.9c-9.4,7-21.1,10.5-35.1,10.5c-11.4,0-21.6-2.6-30.6-7.7c-9-5.1-16.1-12.3-21.2-21.6
				c-5.1-9.3-7.7-20.1-7.7-32.3c0-12.2,2.5-23,7.5-32.3s12-16.4,21-21.5c9-5,19.3-7.6,31-7.6c11.2,0,21.2,2.5,30,7.3
				c8.8,4.9,15.6,11.8,20.5,20.6c4.9,8.9,7.3,19,7.3,30.6C664.3,108.8,664,112.8,663.5,116.4z M638.6,96.6
				c-0.1-9.1-3.4-16.3-9.7-21.8c-6.3-5.5-14.2-8.2-23.5-8.2c-8.5,0-15.8,2.7-21.8,8.1s-9.6,12.7-10.8,21.9H638.6z"/>
			<path class="st1" d="M713.1,6.9v159.8h-24.6V6.9H713.1z"/>
		</g>
		<g class="st0">
			<path class="st2" d="M99.9,27.4v20.1H36.2v44.3h49.7v20.1H36.2v65.7H11.6V27.4H99.9z"/>
			<path class="st2" d="M122.1,85.8c5-9.2,11.7-16.4,20.3-21.5c8.6-5.1,18-7.7,28.4-7.7c9.4,0,17.5,1.8,24.5,5.5
				c7,3.7,12.6,8.2,16.7,13.7V58.5h24.8v119H212v-17.7c-4.2,5.6-9.9,10.3-17.1,14c-7.2,3.7-15.4,5.6-24.6,5.6
				c-10.2,0-19.6-2.6-28.1-7.9c-8.5-5.3-15.2-12.6-20.2-22c-5-9.4-7.5-20.1-7.5-32.1C114.6,105.6,117.1,95,122.1,85.8z M207,96.6
				c-3.4-6-7.8-10.7-13.3-13.8c-5.5-3.2-11.4-4.8-17.7-4.8c-6.3,0-12.2,1.5-17.7,4.6c-5.5,3.1-9.9,7.6-13.3,13.6
				c-3.4,6-5.1,13.1-5.1,21.3s1.7,15.4,5.1,21.6c3.4,6.2,7.8,10.9,13.4,14.1c5.5,3.2,11.4,4.9,17.6,4.9c6.3,0,12.2-1.6,17.7-4.8
				c5.5-3.2,9.9-7.8,13.3-13.9c3.4-6.1,5.1-13.3,5.1-21.5S210.3,102.6,207,96.6z"/>
			<path class="st2" d="M293.9,17.7v159.8h-24.6V17.7H293.9z"/>
			<path class="st2" d="M325.5,85.8c5-9.2,11.7-16.4,20.3-21.5c8.6-5.1,18-7.7,28.4-7.7c9.4,0,17.5,1.8,24.5,5.5
				c7,3.7,12.6,8.2,16.7,13.7V58.5h24.8v119h-24.8v-17.7c-4.2,5.6-9.9,10.3-17.1,14c-7.2,3.7-15.4,5.6-24.6,5.6
				c-10.2,0-19.6-2.6-28.1-7.9c-8.5-5.3-15.2-12.6-20.2-22c-5-9.4-7.5-20.1-7.5-32.1C318.1,105.6,320.6,95,325.5,85.8z M410.4,96.6
				c-3.4-6-7.8-10.7-13.3-13.8c-5.5-3.2-11.4-4.8-17.7-4.8c-6.3,0-12.2,1.5-17.7,4.6c-5.5,3.1-9.9,7.6-13.3,13.6
				c-3.4,6-5.1,13.1-5.1,21.3s1.7,15.4,5.1,21.6c3.4,6.2,7.8,10.9,13.4,14.1c5.5,3.2,11.4,4.9,17.6,4.9c6.3,0,12.2-1.6,17.7-4.8
				c5.5-3.2,9.9-7.8,13.3-13.9c3.4-6.1,5.1-13.3,5.1-21.5S413.8,102.6,410.4,96.6z"/>
			<path class="st2" d="M522.6,78.6h-22v98.9h-24.8V78.6h-14V58.5h14v-8.4c0-13.7,3.6-23.7,10.9-29.9c7.3-6.3,18.7-9.4,34.2-9.4
				v20.5c-7.5,0-12.7,1.4-15.8,4.2c-3,2.8-4.5,7.7-4.5,14.6v8.4h22V78.6z"/>
			<path class="st2" d="M652.7,127.2h-90.9c0.7,9.5,4.2,17.1,10.6,22.9c6.3,5.8,14.1,8.6,23.3,8.6c13.2,0,22.6-5.5,28.1-16.6h26.6
				c-3.6,10.9-10.1,19.9-19.5,26.9c-9.4,7-21.1,10.5-35.1,10.5c-11.4,0-21.6-2.6-30.6-7.7c-9-5.1-16.1-12.3-21.2-21.6
				c-5.1-9.3-7.7-20.1-7.7-32.3c0-12.2,2.5-23,7.5-32.3c5-9.3,12-16.4,21-21.5c9-5,19.3-7.6,31-7.6c11.2,0,21.2,2.5,30,7.3
				c8.8,4.9,15.6,11.8,20.5,20.6c4.9,8.9,7.3,19,7.3,30.6C653.5,119.6,653.2,123.6,652.7,127.2z M627.8,107.4
				c-0.1-9.1-3.4-16.3-9.7-21.8c-6.3-5.5-14.2-8.2-23.5-8.2c-8.5,0-15.8,2.7-21.8,8.1s-9.6,12.7-10.8,21.9H627.8z"/>
			<path class="st2" d="M702.3,17.7v159.8h-24.6V17.7H702.3z"/>
		</g>
		<g class="st0">
			<path class="st3" d="M99.9,27.4v20.1H36.2v44.3h49.7v20.1H36.2v65.7H11.6V27.4H99.9z"/>
			<path class="st3" d="M122.1,85.8c5-9.2,11.7-16.4,20.3-21.5c8.6-5.1,18-7.7,28.4-7.7c9.4,0,17.5,1.8,24.5,5.5
				c7,3.7,12.6,8.2,16.7,13.7V58.5h24.8v119H212v-17.7c-4.2,5.6-9.9,10.3-17.1,14c-7.2,3.7-15.4,5.6-24.6,5.6
				c-10.2,0-19.6-2.6-28.1-7.9c-8.5-5.3-15.2-12.6-20.2-22c-5-9.4-7.5-20.1-7.5-32.1C114.6,105.6,117.1,95,122.1,85.8z M207,96.6
				c-3.4-6-7.8-10.7-13.3-13.8c-5.5-3.2-11.4-4.8-17.7-4.8c-6.3,0-12.2,1.5-17.7,4.6c-5.5,3.1-9.9,7.6-13.3,13.6
				c-3.4,6-5.1,13.1-5.1,21.3s1.7,15.4,5.1,21.6c3.4,6.2,7.8,10.9,13.4,14.1c5.5,3.2,11.4,4.9,17.6,4.9c6.3,0,12.2-1.6,17.7-4.8
				c5.5-3.2,9.9-7.8,13.3-13.9c3.4-6.1,5.1-13.3,5.1-21.5S210.3,102.6,207,96.6z"/>
			<path class="st3" d="M293.9,17.7v159.8h-24.6V17.7H293.9z"/>
			<path class="st3" d="M325.5,85.8c5-9.2,11.7-16.4,20.3-21.5c8.6-5.1,18-7.7,28.4-7.7c9.4,0,17.5,1.8,24.5,5.5
				c7,3.7,12.6,8.2,16.7,13.7V58.5h24.8v119h-24.8v-17.7c-4.2,5.6-9.9,10.3-17.1,14c-7.2,3.7-15.4,5.6-24.6,5.6
				c-10.2,0-19.6-2.6-28.1-7.9c-8.5-5.3-15.2-12.6-20.2-22c-5-9.4-7.5-20.1-7.5-32.1C318.1,105.6,320.6,95,325.5,85.8z M410.4,96.6
				c-3.4-6-7.8-10.7-13.3-13.8c-5.5-3.2-11.4-4.8-17.7-4.8c-6.3,0-12.2,1.5-17.7,4.6c-5.5,3.1-9.9,7.6-13.3,13.6
				c-3.4,6-5.1,13.1-5.1,21.3s1.7,15.4,5.1,21.6c3.4,6.2,7.8,10.9,13.4,14.1c5.5,3.2,11.4,4.9,17.6,4.9c6.3,0,12.2-1.6,17.7-4.8
				c5.5-3.2,9.9-7.8,13.3-13.9c3.4-6.1,5.1-13.3,5.1-21.5S413.8,102.6,410.4,96.6z"/>
			<path class="st3" d="M522.6,78.6h-22v98.9h-24.8V78.6h-14V58.5h14v-8.4c0-13.7,3.6-23.7,10.9-29.9c7.3-6.3,18.7-9.4,34.2-9.4
				v20.5c-7.5,0-12.7,1.4-15.8,4.2c-3,2.8-4.5,7.7-4.5,14.6v8.4h22V78.6z"/>
			<path class="st3" d="M652.7,127.2h-90.9c0.7,9.5,4.2,17.1,10.6,22.9c6.3,5.8,14.1,8.6,23.3,8.6c13.2,0,22.6-5.5,28.1-16.6h26.6
				c-3.6,10.9-10.1,19.9-19.5,26.9c-9.4,7-21.1,10.5-35.1,10.5c-11.4,0-21.6-2.6-30.6-7.7c-9-5.1-16.1-12.3-21.2-21.6
				c-5.1-9.3-7.7-20.1-7.7-32.3c0-12.2,2.5-23,7.5-32.3c5-9.3,12-16.4,21-21.5c9-5,19.3-7.6,31-7.6c11.2,0,21.2,2.5,30,7.3
				c8.8,4.9,15.6,11.8,20.5,20.6c4.9,8.9,7.3,19,7.3,30.6C653.5,119.6,653.2,123.6,652.7,127.2z M627.8,107.4
				c-0.1-9.1-3.4-16.3-9.7-21.8c-6.3-5.5-14.2-8.2-23.5-8.2c-8.5,0-15.8,2.7-21.8,8.1s-9.6,12.7-10.8,21.9H627.8z"/>
			<path class="st3" d="M702.3,17.7v159.8h-24.6V17.7H702.3z"/>
		</g>
	</g>
</g>
</svg>
